<?xml version="1.0" encoding="utf-8" standalone="no"?>
<!DOCTYPE svg PUBLIC "-//W3C//DTD SVG 1.1//EN"
  "http://www.w3.org/Graphics/SVG/1.1/DTD/svg11.dtd">
<svg height="1440pt" version="1.1" viewBox="0 0 1440 1440" width="1440pt" xmlns="http://www.w3.org/2000/svg" xmlns:xlink="http://www.w3.org/1999/xlink">
 <metadata>
  <rdf:RDF xmlns:cc="http://creativecommons.org/ns#" xmlns:dc="http://purl.org/dc/elements/1.1/" xmlns:rdf="http://www.w3.org/1999/02/22-rdf-syntax-ns#">
   <cc:Work>
    <dc:type rdf:resource="http://purl.org/dc/dcmitype/StillImage"/>
    <dc:date>2021-12-08T18:12:48.027857</dc:date>
    <dc:format>image/svg+xml</dc:format>
    <dc:creator>
     <cc:Agent>
      <dc:title>Matplotlib v3.4.3, https://matplotlib.org/</dc:title>
     </cc:Agent>
    </dc:creator>
   </cc:Work>
  </rdf:RDF>
 </metadata>
 <defs>
  <style type="text/css">*{stroke-linecap:butt;stroke-linejoin:round;}</style>
 </defs>
 <g id="figure_1">
  <g id="patch_1">
   <path d="M 0 1440 
L 1440 1440 
L 1440 0 
L 0 0 
z
" style="fill:#ffffff;"/>
  </g>
  <g id="axes_1">
   <g id="patch_2">
    <path d="M 153.66443 1296 
L 1286.33557 1296 
L 1286.33557 144 
L 153.66443 144 
z
" style="fill:#ffffff;"/>
   </g>
   <g id="PathCollection_1">
    <defs>
     <path d="M 0 3 
C 0.795609 3 1.55874 2.683901 2.12132 2.12132 
C 2.683901 1.55874 3 0.795609 3 0 
C 3 -0.795609 2.683901 -1.55874 2.12132 -2.12132 
C 1.55874 -2.683901 0.795609 -3 0 -3 
C -0.795609 -3 -1.55874 -2.683901 -2.12132 -2.12132 
C -2.683901 -1.55874 -3 -0.795609 -3 0 
C -3 0.795609 -2.683901 1.55874 -2.12132 2.12132 
C -1.55874 2.683901 -0.795609 3 0 3 
z
" id="meaa6a2a91c" style="stroke:#ff0000;"/>
    </defs>
    <g clip-path="url(#pc5f5d15250)">
     <use style="fill:#ff0000;stroke:#ff0000;" x="732.300183" xlink:href="#meaa6a2a91c" y="196.363636"/>
     <use style="fill:#ff0000;stroke:#ff0000;" x="1034.533252" xlink:href="#meaa6a2a91c" y="340.451495"/>
     <use style="fill:#ff0000;stroke:#ff0000;" x="1023.990238" xlink:href="#meaa6a2a91c" y="614.56986"/>
     <use style="fill:#ff0000;stroke:#ff0000;" x="229.749847" xlink:href="#meaa6a2a91c" y="1243.636364"/>
     <use style="fill:#ff0000;stroke:#ff0000;" x="1090.76266" xlink:href="#meaa6a2a91c" y="642.684564"/>
     <use style="fill:#ff0000;stroke:#ff0000;" x="1016.961562" xlink:href="#meaa6a2a91c" y="1120.634533"/>
     <use style="fill:#ff0000;stroke:#ff0000;" x="683.099451" xlink:href="#meaa6a2a91c" y="1089.005491"/>
     <use style="fill:#ff0000;stroke:#ff0000;" x="844.758999" xlink:href="#meaa6a2a91c" y="786.772422"/>
     <use style="fill:#ff0000;stroke:#ff0000;" x="676.070775" xlink:href="#meaa6a2a91c" y="800.829774"/>
     <use style="fill:#ff0000;stroke:#ff0000;" x="964.246492" xlink:href="#meaa6a2a91c" y="850.030506"/>
     <use style="fill:#ff0000;stroke:#ff0000;" x="1059.133618" xlink:href="#meaa6a2a91c" y="512.654057"/>
     <use style="fill:#ff0000;stroke:#ff0000;" x="1234.850519" xlink:href="#meaa6a2a91c" y="649.71324"/>
     <use style="fill:#ff0000;stroke:#ff0000;" x="1122.391702" xlink:href="#meaa6a2a91c" y="828.944478"/>
     <use style="fill:#ff0000;stroke:#ff0000;" x="690.128127" xlink:href="#meaa6a2a91c" y="1233.09335"/>
     <use style="fill:#ff0000;stroke:#ff0000;" x="430.067114" xlink:href="#meaa6a2a91c" y="804.344112"/>
     <use style="fill:#ff0000;stroke:#ff0000;" x="1192.678462" xlink:href="#meaa6a2a91c" y="596.99817"/>
     <use style="fill:#ff0000;stroke:#ff0000;" x="236.778523" xlink:href="#meaa6a2a91c" y="839.487492"/>
     <use style="fill:#ff0000;stroke:#ff0000;" x="781.500915" xlink:href="#meaa6a2a91c" y="1018.718731"/>
     <use style="fill:#ff0000;stroke:#ff0000;" x="662.013423" xlink:href="#meaa6a2a91c" y="1159.292251"/>
     <use style="fill:#ff0000;stroke:#ff0000;" x="1048.590604" xlink:href="#meaa6a2a91c" y="635.655888"/>
     <use style="fill:#ff0000;stroke:#ff0000;" x="1034.533252" xlink:href="#meaa6a2a91c" y="428.309945"/>
     <use style="fill:#ff0000;stroke:#ff0000;" x="1199.707138" xlink:href="#meaa6a2a91c" y="280.707749"/>
     <use style="fill:#ff0000;stroke:#ff0000;" x="468.724832" xlink:href="#meaa6a2a91c" y="322.879805"/>
     <use style="fill:#ff0000;stroke:#ff0000;" x="468.724832" xlink:href="#meaa6a2a91c" y="1039.804759"/>
     <use style="fill:#ff0000;stroke:#ff0000;" x="271.921904" xlink:href="#meaa6a2a91c" y="256.107383"/>
     <use style="fill:#ff0000;stroke:#ff0000;" x="1052.104942" xlink:href="#meaa6a2a91c" y="712.971324"/>
     <use style="fill:#ff0000;stroke:#ff0000;" x="338.694326" xlink:href="#meaa6a2a91c" y="196.363636"/>
     <use style="fill:#ff0000;stroke:#ff0000;" x="1129.420378" xlink:href="#meaa6a2a91c" y="256.107383"/>
     <use style="fill:#ff0000;stroke:#ff0000;" x="602.269677" xlink:href="#meaa6a2a91c" y="1194.435631"/>
     <use style="fill:#ff0000;stroke:#ff0000;" x="1118.877364" xlink:href="#meaa6a2a91c" y="1197.949969"/>
     <use style="fill:#ff0000;stroke:#ff0000;" x="205.149481" xlink:href="#meaa6a2a91c" y="1089.005491"/>
     <use style="fill:#ff0000;stroke:#ff0000;" x="468.724832" xlink:href="#meaa6a2a91c" y="853.544844"/>
     <use style="fill:#ff0000;stroke:#ff0000;" x="310.579622" xlink:href="#meaa6a2a91c" y="790.28676"/>
     <use style="fill:#ff0000;stroke:#ff0000;" x="788.529591" xlink:href="#meaa6a2a91c" y="301.793777"/>
     <use style="fill:#ff0000;stroke:#ff0000;" x="264.893228" xlink:href="#meaa6a2a91c" y="695.399634"/>
     <use style="fill:#ff0000;stroke:#ff0000;" x="314.09396" xlink:href="#meaa6a2a91c" y="670.799268"/>
     <use style="fill:#ff0000;stroke:#ff0000;" x="560.097621" xlink:href="#meaa6a2a91c" y="955.460647"/>
     <use style="fill:#ff0000;stroke:#ff0000;" x="721.757169" xlink:href="#meaa6a2a91c" y="1089.005491"/>
     <use style="fill:#ff0000;stroke:#ff0000;" x="770.957901" xlink:href="#meaa6a2a91c" y="1162.806589"/>
     <use style="fill:#ff0000;stroke:#ff0000;" x="366.80903" xlink:href="#meaa6a2a91c" y="235.021354"/>
     <use style="fill:#ff0000;stroke:#ff0000;" x="654.984747" xlink:href="#meaa6a2a91c" y="199.877974"/>
     <use style="fill:#ff0000;stroke:#ff0000;" x="271.921904" xlink:href="#meaa6a2a91c" y="266.650397"/>
     <use style="fill:#ff0000;stroke:#ff0000;" x="1045.076266" xlink:href="#meaa6a2a91c" y="632.14155"/>
     <use style="fill:#ff0000;stroke:#ff0000;" x="1129.420378" xlink:href="#meaa6a2a91c" y="291.250763"/>
     <use style="fill:#ff0000;stroke:#ff0000;" x="992.361196" xlink:href="#meaa6a2a91c" y="987.089689"/>
    </g>
   </g>
   <g id="matplotlib.axis_1">
    <g id="xtick_1">
     <g id="line2d_1">
      <defs>
       <path d="M 0 0 
L 0 3.5 
" id="m3776bdc03d" style="stroke:#000000;stroke-width:0.8;"/>
      </defs>
      <g>
       <use style="stroke:#000000;stroke-width:0.8;" x="191.092129" xlink:href="#m3776bdc03d" y="1296"/>
      </g>
     </g>
     <g id="text_1">
      <!-- 0 -->
      <g transform="translate(187.910879 1310.598438)scale(0.1 -0.1)">
       <defs>
        <path d="M 2034 4250 
Q 1547 4250 1301 3770 
Q 1056 3291 1056 2328 
Q 1056 1369 1301 889 
Q 1547 409 2034 409 
Q 2525 409 2770 889 
Q 3016 1369 3016 2328 
Q 3016 3291 2770 3770 
Q 2525 4250 2034 4250 
z
M 2034 4750 
Q 2819 4750 3233 4129 
Q 3647 3509 3647 2328 
Q 3647 1150 3233 529 
Q 2819 -91 2034 -91 
Q 1250 -91 836 529 
Q 422 1150 422 2328 
Q 422 3509 836 4129 
Q 1250 4750 2034 4750 
z
" id="DejaVuSans-30" transform="scale(0.015625)"/>
       </defs>
       <use xlink:href="#DejaVuSans-30"/>
      </g>
     </g>
    </g>
    <g id="xtick_2">
     <g id="line2d_2">
      <g>
       <use style="stroke:#000000;stroke-width:0.8;" x="366.80903" xlink:href="#m3776bdc03d" y="1296"/>
      </g>
     </g>
     <g id="text_2">
      <!-- 50 -->
      <g transform="translate(360.44653 1310.598438)scale(0.1 -0.1)">
       <defs>
        <path d="M 691 4666 
L 3169 4666 
L 3169 4134 
L 1269 4134 
L 1269 2991 
Q 1406 3038 1543 3061 
Q 1681 3084 1819 3084 
Q 2600 3084 3056 2656 
Q 3513 2228 3513 1497 
Q 3513 744 3044 326 
Q 2575 -91 1722 -91 
Q 1428 -91 1123 -41 
Q 819 9 494 109 
L 494 744 
Q 775 591 1075 516 
Q 1375 441 1709 441 
Q 2250 441 2565 725 
Q 2881 1009 2881 1497 
Q 2881 1984 2565 2268 
Q 2250 2553 1709 2553 
Q 1456 2553 1204 2497 
Q 953 2441 691 2322 
L 691 4666 
z
" id="DejaVuSans-35" transform="scale(0.015625)"/>
       </defs>
       <use xlink:href="#DejaVuSans-35"/>
       <use x="63.623047" xlink:href="#DejaVuSans-30"/>
      </g>
     </g>
    </g>
    <g id="xtick_3">
     <g id="line2d_3">
      <g>
       <use style="stroke:#000000;stroke-width:0.8;" x="542.52593" xlink:href="#m3776bdc03d" y="1296"/>
      </g>
     </g>
     <g id="text_3">
      <!-- 100 -->
      <g transform="translate(532.98218 1310.598438)scale(0.1 -0.1)">
       <defs>
        <path d="M 794 531 
L 1825 531 
L 1825 4091 
L 703 3866 
L 703 4441 
L 1819 4666 
L 2450 4666 
L 2450 531 
L 3481 531 
L 3481 0 
L 794 0 
L 794 531 
z
" id="DejaVuSans-31" transform="scale(0.015625)"/>
       </defs>
       <use xlink:href="#DejaVuSans-31"/>
       <use x="63.623047" xlink:href="#DejaVuSans-30"/>
       <use x="127.246094" xlink:href="#DejaVuSans-30"/>
      </g>
     </g>
    </g>
    <g id="xtick_4">
     <g id="line2d_4">
      <g>
       <use style="stroke:#000000;stroke-width:0.8;" x="718.242831" xlink:href="#m3776bdc03d" y="1296"/>
      </g>
     </g>
     <g id="text_4">
      <!-- 150 -->
      <g transform="translate(708.699081 1310.598438)scale(0.1 -0.1)">
       <use xlink:href="#DejaVuSans-31"/>
       <use x="63.623047" xlink:href="#DejaVuSans-35"/>
       <use x="127.246094" xlink:href="#DejaVuSans-30"/>
      </g>
     </g>
    </g>
    <g id="xtick_5">
     <g id="line2d_5">
      <g>
       <use style="stroke:#000000;stroke-width:0.8;" x="893.959732" xlink:href="#m3776bdc03d" y="1296"/>
      </g>
     </g>
     <g id="text_5">
      <!-- 200 -->
      <g transform="translate(884.415982 1310.598438)scale(0.1 -0.1)">
       <defs>
        <path d="M 1228 531 
L 3431 531 
L 3431 0 
L 469 0 
L 469 531 
Q 828 903 1448 1529 
Q 2069 2156 2228 2338 
Q 2531 2678 2651 2914 
Q 2772 3150 2772 3378 
Q 2772 3750 2511 3984 
Q 2250 4219 1831 4219 
Q 1534 4219 1204 4116 
Q 875 4013 500 3803 
L 500 4441 
Q 881 4594 1212 4672 
Q 1544 4750 1819 4750 
Q 2544 4750 2975 4387 
Q 3406 4025 3406 3419 
Q 3406 3131 3298 2873 
Q 3191 2616 2906 2266 
Q 2828 2175 2409 1742 
Q 1991 1309 1228 531 
z
" id="DejaVuSans-32" transform="scale(0.015625)"/>
       </defs>
       <use xlink:href="#DejaVuSans-32"/>
       <use x="63.623047" xlink:href="#DejaVuSans-30"/>
       <use x="127.246094" xlink:href="#DejaVuSans-30"/>
      </g>
     </g>
    </g>
    <g id="xtick_6">
     <g id="line2d_6">
      <g>
       <use style="stroke:#000000;stroke-width:0.8;" x="1069.676632" xlink:href="#m3776bdc03d" y="1296"/>
      </g>
     </g>
     <g id="text_6">
      <!-- 250 -->
      <g transform="translate(1060.132882 1310.598438)scale(0.1 -0.1)">
       <use xlink:href="#DejaVuSans-32"/>
       <use x="63.623047" xlink:href="#DejaVuSans-35"/>
       <use x="127.246094" xlink:href="#DejaVuSans-30"/>
      </g>
     </g>
    </g>
    <g id="xtick_7">
     <g id="line2d_7">
      <g>
       <use style="stroke:#000000;stroke-width:0.8;" x="1245.393533" xlink:href="#m3776bdc03d" y="1296"/>
      </g>
     </g>
     <g id="text_7">
      <!-- 300 -->
      <g transform="translate(1235.849783 1310.598438)scale(0.1 -0.1)">
       <defs>
        <path d="M 2597 2516 
Q 3050 2419 3304 2112 
Q 3559 1806 3559 1356 
Q 3559 666 3084 287 
Q 2609 -91 1734 -91 
Q 1441 -91 1130 -33 
Q 819 25 488 141 
L 488 750 
Q 750 597 1062 519 
Q 1375 441 1716 441 
Q 2309 441 2620 675 
Q 2931 909 2931 1356 
Q 2931 1769 2642 2001 
Q 2353 2234 1838 2234 
L 1294 2234 
L 1294 2753 
L 1863 2753 
Q 2328 2753 2575 2939 
Q 2822 3125 2822 3475 
Q 2822 3834 2567 4026 
Q 2313 4219 1838 4219 
Q 1578 4219 1281 4162 
Q 984 4106 628 3988 
L 628 4550 
Q 988 4650 1302 4700 
Q 1616 4750 1894 4750 
Q 2613 4750 3031 4423 
Q 3450 4097 3450 3541 
Q 3450 3153 3228 2886 
Q 3006 2619 2597 2516 
z
" id="DejaVuSans-33" transform="scale(0.015625)"/>
       </defs>
       <use xlink:href="#DejaVuSans-33"/>
       <use x="63.623047" xlink:href="#DejaVuSans-30"/>
       <use x="127.246094" xlink:href="#DejaVuSans-30"/>
      </g>
     </g>
    </g>
   </g>
   <g id="matplotlib.axis_2">
    <g id="ytick_1">
     <g id="line2d_8">
      <defs>
       <path d="M 0 0 
L -3.5 0 
" id="maaa882a3ef" style="stroke:#000000;stroke-width:0.8;"/>
      </defs>
      <g>
       <use style="stroke:#000000;stroke-width:0.8;" x="153.66443" xlink:href="#maaa882a3ef" y="1247.150702"/>
      </g>
     </g>
     <g id="text_8">
      <!-- 0 -->
      <g transform="translate(140.30193 1250.94992)scale(0.1 -0.1)">
       <use xlink:href="#DejaVuSans-30"/>
      </g>
     </g>
    </g>
    <g id="ytick_2">
     <g id="line2d_9">
      <g>
       <use style="stroke:#000000;stroke-width:0.8;" x="153.66443" xlink:href="#maaa882a3ef" y="1071.433801"/>
      </g>
     </g>
     <g id="text_9">
      <!-- 50 -->
      <g transform="translate(133.93943 1075.23302)scale(0.1 -0.1)">
       <use xlink:href="#DejaVuSans-35"/>
       <use x="63.623047" xlink:href="#DejaVuSans-30"/>
      </g>
     </g>
    </g>
    <g id="ytick_3">
     <g id="line2d_10">
      <g>
       <use style="stroke:#000000;stroke-width:0.8;" x="153.66443" xlink:href="#maaa882a3ef" y="895.716901"/>
      </g>
     </g>
     <g id="text_10">
      <!-- 100 -->
      <g transform="translate(127.57693 899.516119)scale(0.1 -0.1)">
       <use xlink:href="#DejaVuSans-31"/>
       <use x="63.623047" xlink:href="#DejaVuSans-30"/>
       <use x="127.246094" xlink:href="#DejaVuSans-30"/>
      </g>
     </g>
    </g>
    <g id="ytick_4">
     <g id="line2d_11">
      <g>
       <use style="stroke:#000000;stroke-width:0.8;" x="153.66443" xlink:href="#maaa882a3ef" y="720"/>
      </g>
     </g>
     <g id="text_11">
      <!-- 150 -->
      <g transform="translate(127.57693 723.799219)scale(0.1 -0.1)">
       <use xlink:href="#DejaVuSans-31"/>
       <use x="63.623047" xlink:href="#DejaVuSans-35"/>
       <use x="127.246094" xlink:href="#DejaVuSans-30"/>
      </g>
     </g>
    </g>
    <g id="ytick_5">
     <g id="line2d_12">
      <g>
       <use style="stroke:#000000;stroke-width:0.8;" x="153.66443" xlink:href="#maaa882a3ef" y="544.283099"/>
      </g>
     </g>
     <g id="text_12">
      <!-- 200 -->
      <g transform="translate(127.57693 548.082318)scale(0.1 -0.1)">
       <use xlink:href="#DejaVuSans-32"/>
       <use x="63.623047" xlink:href="#DejaVuSans-30"/>
       <use x="127.246094" xlink:href="#DejaVuSans-30"/>
      </g>
     </g>
    </g>
    <g id="ytick_6">
     <g id="line2d_13">
      <g>
       <use style="stroke:#000000;stroke-width:0.8;" x="153.66443" xlink:href="#maaa882a3ef" y="368.566199"/>
      </g>
     </g>
     <g id="text_13">
      <!-- 250 -->
      <g transform="translate(127.57693 372.365418)scale(0.1 -0.1)">
       <use xlink:href="#DejaVuSans-32"/>
       <use x="63.623047" xlink:href="#DejaVuSans-35"/>
       <use x="127.246094" xlink:href="#DejaVuSans-30"/>
      </g>
     </g>
    </g>
    <g id="ytick_7">
     <g id="line2d_14">
      <g>
       <use style="stroke:#000000;stroke-width:0.8;" x="153.66443" xlink:href="#maaa882a3ef" y="192.849298"/>
      </g>
     </g>
     <g id="text_14">
      <!-- 300 -->
      <g transform="translate(127.57693 196.648517)scale(0.1 -0.1)">
       <use xlink:href="#DejaVuSans-33"/>
       <use x="63.623047" xlink:href="#DejaVuSans-30"/>
       <use x="127.246094" xlink:href="#DejaVuSans-30"/>
      </g>
     </g>
    </g>
   </g>
   <g id="line2d_15">
    <path clip-path="url(#pc5f5d15250)" d="M 229.749847 1243.636364 
L 690.128127 1233.09335 
L 1118.877364 1197.949969 
L 1234.850519 649.71324 
L 1199.707138 280.707749 
L 1129.420378 256.107383 
L 732.300183 196.363636 
L 338.694326 196.363636 
L 271.921904 256.107383 
L 205.149481 1089.005491 
L 229.749847 1243.636364 
" style="fill:none;stroke:#1f77b4;stroke-linecap:square;stroke-width:1.5;"/>
   </g>
   <g id="patch_3">
    <path d="M 153.66443 1296 
L 153.66443 144 
" style="fill:none;stroke:#000000;stroke-linecap:square;stroke-linejoin:miter;stroke-width:0.8;"/>
   </g>
   <g id="patch_4">
    <path d="M 1286.33557 1296 
L 1286.33557 144 
" style="fill:none;stroke:#000000;stroke-linecap:square;stroke-linejoin:miter;stroke-width:0.8;"/>
   </g>
   <g id="patch_5">
    <path d="M 153.66443 1296 
L 1286.33557 1296 
" style="fill:none;stroke:#000000;stroke-linecap:square;stroke-linejoin:miter;stroke-width:0.8;"/>
   </g>
   <g id="patch_6">
    <path d="M 153.66443 144 
L 1286.33557 144 
" style="fill:none;stroke:#000000;stroke-linecap:square;stroke-linejoin:miter;stroke-width:0.8;"/>
   </g>
   <g id="text_15">
    <!-- 0 -->
    <g transform="translate(732.300183 196.363636)scale(0.1 -0.1)">
     <use xlink:href="#DejaVuSans-30"/>
    </g>
   </g>
   <g id="text_16">
    <!-- 1 -->
    <g transform="translate(1034.533252 340.451495)scale(0.1 -0.1)">
     <use xlink:href="#DejaVuSans-31"/>
    </g>
   </g>
   <g id="text_17">
    <!-- 2 -->
    <g transform="translate(1023.990238 614.56986)scale(0.1 -0.1)">
     <use xlink:href="#DejaVuSans-32"/>
    </g>
   </g>
   <g id="text_18">
    <!-- 3 -->
    <g transform="translate(229.749847 1243.636364)scale(0.1 -0.1)">
     <use xlink:href="#DejaVuSans-33"/>
    </g>
   </g>
   <g id="text_19">
    <!-- 4 -->
    <g transform="translate(1090.76266 642.684564)scale(0.1 -0.1)">
     <defs>
      <path d="M 2419 4116 
L 825 1625 
L 2419 1625 
L 2419 4116 
z
M 2253 4666 
L 3047 4666 
L 3047 1625 
L 3713 1625 
L 3713 1100 
L 3047 1100 
L 3047 0 
L 2419 0 
L 2419 1100 
L 313 1100 
L 313 1709 
L 2253 4666 
z
" id="DejaVuSans-34" transform="scale(0.015625)"/>
     </defs>
     <use xlink:href="#DejaVuSans-34"/>
    </g>
   </g>
   <g id="text_20">
    <!-- 5 -->
    <g transform="translate(1016.961562 1120.634533)scale(0.1 -0.1)">
     <use xlink:href="#DejaVuSans-35"/>
    </g>
   </g>
   <g id="text_21">
    <!-- 6 -->
    <g transform="translate(683.099451 1089.005491)scale(0.1 -0.1)">
     <defs>
      <path d="M 2113 2584 
Q 1688 2584 1439 2293 
Q 1191 2003 1191 1497 
Q 1191 994 1439 701 
Q 1688 409 2113 409 
Q 2538 409 2786 701 
Q 3034 994 3034 1497 
Q 3034 2003 2786 2293 
Q 2538 2584 2113 2584 
z
M 3366 4563 
L 3366 3988 
Q 3128 4100 2886 4159 
Q 2644 4219 2406 4219 
Q 1781 4219 1451 3797 
Q 1122 3375 1075 2522 
Q 1259 2794 1537 2939 
Q 1816 3084 2150 3084 
Q 2853 3084 3261 2657 
Q 3669 2231 3669 1497 
Q 3669 778 3244 343 
Q 2819 -91 2113 -91 
Q 1303 -91 875 529 
Q 447 1150 447 2328 
Q 447 3434 972 4092 
Q 1497 4750 2381 4750 
Q 2619 4750 2861 4703 
Q 3103 4656 3366 4563 
z
" id="DejaVuSans-36" transform="scale(0.015625)"/>
     </defs>
     <use xlink:href="#DejaVuSans-36"/>
    </g>
   </g>
   <g id="text_22">
    <!-- 7 -->
    <g transform="translate(844.758999 786.772422)scale(0.1 -0.1)">
     <defs>
      <path d="M 525 4666 
L 3525 4666 
L 3525 4397 
L 1831 0 
L 1172 0 
L 2766 4134 
L 525 4134 
L 525 4666 
z
" id="DejaVuSans-37" transform="scale(0.015625)"/>
     </defs>
     <use xlink:href="#DejaVuSans-37"/>
    </g>
   </g>
   <g id="text_23">
    <!-- 8 -->
    <g transform="translate(676.070775 800.829774)scale(0.1 -0.1)">
     <defs>
      <path d="M 2034 2216 
Q 1584 2216 1326 1975 
Q 1069 1734 1069 1313 
Q 1069 891 1326 650 
Q 1584 409 2034 409 
Q 2484 409 2743 651 
Q 3003 894 3003 1313 
Q 3003 1734 2745 1975 
Q 2488 2216 2034 2216 
z
M 1403 2484 
Q 997 2584 770 2862 
Q 544 3141 544 3541 
Q 544 4100 942 4425 
Q 1341 4750 2034 4750 
Q 2731 4750 3128 4425 
Q 3525 4100 3525 3541 
Q 3525 3141 3298 2862 
Q 3072 2584 2669 2484 
Q 3125 2378 3379 2068 
Q 3634 1759 3634 1313 
Q 3634 634 3220 271 
Q 2806 -91 2034 -91 
Q 1263 -91 848 271 
Q 434 634 434 1313 
Q 434 1759 690 2068 
Q 947 2378 1403 2484 
z
M 1172 3481 
Q 1172 3119 1398 2916 
Q 1625 2713 2034 2713 
Q 2441 2713 2670 2916 
Q 2900 3119 2900 3481 
Q 2900 3844 2670 4047 
Q 2441 4250 2034 4250 
Q 1625 4250 1398 4047 
Q 1172 3844 1172 3481 
z
" id="DejaVuSans-38" transform="scale(0.015625)"/>
     </defs>
     <use xlink:href="#DejaVuSans-38"/>
    </g>
   </g>
   <g id="text_24">
    <!-- 9 -->
    <g transform="translate(964.246492 850.030506)scale(0.1 -0.1)">
     <defs>
      <path d="M 703 97 
L 703 672 
Q 941 559 1184 500 
Q 1428 441 1663 441 
Q 2288 441 2617 861 
Q 2947 1281 2994 2138 
Q 2813 1869 2534 1725 
Q 2256 1581 1919 1581 
Q 1219 1581 811 2004 
Q 403 2428 403 3163 
Q 403 3881 828 4315 
Q 1253 4750 1959 4750 
Q 2769 4750 3195 4129 
Q 3622 3509 3622 2328 
Q 3622 1225 3098 567 
Q 2575 -91 1691 -91 
Q 1453 -91 1209 -44 
Q 966 3 703 97 
z
M 1959 2075 
Q 2384 2075 2632 2365 
Q 2881 2656 2881 3163 
Q 2881 3666 2632 3958 
Q 2384 4250 1959 4250 
Q 1534 4250 1286 3958 
Q 1038 3666 1038 3163 
Q 1038 2656 1286 2365 
Q 1534 2075 1959 2075 
z
" id="DejaVuSans-39" transform="scale(0.015625)"/>
     </defs>
     <use xlink:href="#DejaVuSans-39"/>
    </g>
   </g>
   <g id="text_25">
    <!-- 10 -->
    <g transform="translate(1059.133618 512.654057)scale(0.1 -0.1)">
     <use xlink:href="#DejaVuSans-31"/>
     <use x="63.623047" xlink:href="#DejaVuSans-30"/>
    </g>
   </g>
   <g id="text_26">
    <!-- 11 -->
    <g transform="translate(1234.850519 649.71324)scale(0.1 -0.1)">
     <use xlink:href="#DejaVuSans-31"/>
     <use x="63.623047" xlink:href="#DejaVuSans-31"/>
    </g>
   </g>
   <g id="text_27">
    <!-- 12 -->
    <g transform="translate(1122.391702 828.944478)scale(0.1 -0.1)">
     <use xlink:href="#DejaVuSans-31"/>
     <use x="63.623047" xlink:href="#DejaVuSans-32"/>
    </g>
   </g>
   <g id="text_28">
    <!-- 13 -->
    <g transform="translate(690.128127 1233.09335)scale(0.1 -0.1)">
     <use xlink:href="#DejaVuSans-31"/>
     <use x="63.623047" xlink:href="#DejaVuSans-33"/>
    </g>
   </g>
   <g id="text_29">
    <!-- 14 -->
    <g transform="translate(430.067114 804.344112)scale(0.1 -0.1)">
     <use xlink:href="#DejaVuSans-31"/>
     <use x="63.623047" xlink:href="#DejaVuSans-34"/>
    </g>
   </g>
   <g id="text_30">
    <!-- 15 -->
    <g transform="translate(1192.678462 596.99817)scale(0.1 -0.1)">
     <use xlink:href="#DejaVuSans-31"/>
     <use x="63.623047" xlink:href="#DejaVuSans-35"/>
    </g>
   </g>
   <g id="text_31">
    <!-- 16 -->
    <g transform="translate(236.778523 839.487492)scale(0.1 -0.1)">
     <use xlink:href="#DejaVuSans-31"/>
     <use x="63.623047" xlink:href="#DejaVuSans-36"/>
    </g>
   </g>
   <g id="text_32">
    <!-- 17 -->
    <g transform="translate(781.500915 1018.718731)scale(0.1 -0.1)">
     <use xlink:href="#DejaVuSans-31"/>
     <use x="63.623047" xlink:href="#DejaVuSans-37"/>
    </g>
   </g>
   <g id="text_33">
    <!-- 18 -->
    <g transform="translate(662.013423 1159.292251)scale(0.1 -0.1)">
     <use xlink:href="#DejaVuSans-31"/>
     <use x="63.623047" xlink:href="#DejaVuSans-38"/>
    </g>
   </g>
   <g id="text_34">
    <!-- 19 -->
    <g transform="translate(1048.590604 635.655888)scale(0.1 -0.1)">
     <use xlink:href="#DejaVuSans-31"/>
     <use x="63.623047" xlink:href="#DejaVuSans-39"/>
    </g>
   </g>
   <g id="text_35">
    <!-- 20 -->
    <g transform="translate(1034.533252 428.309945)scale(0.1 -0.1)">
     <use xlink:href="#DejaVuSans-32"/>
     <use x="63.623047" xlink:href="#DejaVuSans-30"/>
    </g>
   </g>
   <g id="text_36">
    <!-- 21 -->
    <g transform="translate(1199.707138 280.707749)scale(0.1 -0.1)">
     <use xlink:href="#DejaVuSans-32"/>
     <use x="63.623047" xlink:href="#DejaVuSans-31"/>
    </g>
   </g>
   <g id="text_37">
    <!-- 22 -->
    <g transform="translate(468.724832 322.879805)scale(0.1 -0.1)">
     <use xlink:href="#DejaVuSans-32"/>
     <use x="63.623047" xlink:href="#DejaVuSans-32"/>
    </g>
   </g>
   <g id="text_38">
    <!-- 23 -->
    <g transform="translate(468.724832 1039.804759)scale(0.1 -0.1)">
     <use xlink:href="#DejaVuSans-32"/>
     <use x="63.623047" xlink:href="#DejaVuSans-33"/>
    </g>
   </g>
   <g id="text_39">
    <!-- 24 -->
    <g transform="translate(271.921904 256.107383)scale(0.1 -0.1)">
     <use xlink:href="#DejaVuSans-32"/>
     <use x="63.623047" xlink:href="#DejaVuSans-34"/>
    </g>
   </g>
   <g id="text_40">
    <!-- 25 -->
    <g transform="translate(1052.104942 712.971324)scale(0.1 -0.1)">
     <use xlink:href="#DejaVuSans-32"/>
     <use x="63.623047" xlink:href="#DejaVuSans-35"/>
    </g>
   </g>
   <g id="text_41">
    <!-- 26 -->
    <g transform="translate(338.694326 196.363636)scale(0.1 -0.1)">
     <use xlink:href="#DejaVuSans-32"/>
     <use x="63.623047" xlink:href="#DejaVuSans-36"/>
    </g>
   </g>
   <g id="text_42">
    <!-- 27 -->
    <g transform="translate(1129.420378 256.107383)scale(0.1 -0.1)">
     <use xlink:href="#DejaVuSans-32"/>
     <use x="63.623047" xlink:href="#DejaVuSans-37"/>
    </g>
   </g>
   <g id="text_43">
    <!-- 28 -->
    <g transform="translate(602.269677 1194.435631)scale(0.1 -0.1)">
     <use xlink:href="#DejaVuSans-32"/>
     <use x="63.623047" xlink:href="#DejaVuSans-38"/>
    </g>
   </g>
   <g id="text_44">
    <!-- 29 -->
    <g transform="translate(1118.877364 1197.949969)scale(0.1 -0.1)">
     <use xlink:href="#DejaVuSans-32"/>
     <use x="63.623047" xlink:href="#DejaVuSans-39"/>
    </g>
   </g>
   <g id="text_45">
    <!-- 30 -->
    <g transform="translate(205.149481 1089.005491)scale(0.1 -0.1)">
     <use xlink:href="#DejaVuSans-33"/>
     <use x="63.623047" xlink:href="#DejaVuSans-30"/>
    </g>
   </g>
   <g id="text_46">
    <!-- 31 -->
    <g transform="translate(468.724832 853.544844)scale(0.1 -0.1)">
     <use xlink:href="#DejaVuSans-33"/>
     <use x="63.623047" xlink:href="#DejaVuSans-31"/>
    </g>
   </g>
   <g id="text_47">
    <!-- 32 -->
    <g transform="translate(310.579622 790.28676)scale(0.1 -0.1)">
     <use xlink:href="#DejaVuSans-33"/>
     <use x="63.623047" xlink:href="#DejaVuSans-32"/>
    </g>
   </g>
   <g id="text_48">
    <!-- 33 -->
    <g transform="translate(788.529591 301.793777)scale(0.1 -0.1)">
     <use xlink:href="#DejaVuSans-33"/>
     <use x="63.623047" xlink:href="#DejaVuSans-33"/>
    </g>
   </g>
   <g id="text_49">
    <!-- 34 -->
    <g transform="translate(264.893228 695.399634)scale(0.1 -0.1)">
     <use xlink:href="#DejaVuSans-33"/>
     <use x="63.623047" xlink:href="#DejaVuSans-34"/>
    </g>
   </g>
   <g id="text_50">
    <!-- 35 -->
    <g transform="translate(314.09396 670.799268)scale(0.1 -0.1)">
     <use xlink:href="#DejaVuSans-33"/>
     <use x="63.623047" xlink:href="#DejaVuSans-35"/>
    </g>
   </g>
   <g id="text_51">
    <!-- 36 -->
    <g transform="translate(560.097621 955.460647)scale(0.1 -0.1)">
     <use xlink:href="#DejaVuSans-33"/>
     <use x="63.623047" xlink:href="#DejaVuSans-36"/>
    </g>
   </g>
   <g id="text_52">
    <!-- 37 -->
    <g transform="translate(721.757169 1089.005491)scale(0.1 -0.1)">
     <use xlink:href="#DejaVuSans-33"/>
     <use x="63.623047" xlink:href="#DejaVuSans-37"/>
    </g>
   </g>
   <g id="text_53">
    <!-- 38 -->
    <g transform="translate(770.957901 1162.806589)scale(0.1 -0.1)">
     <use xlink:href="#DejaVuSans-33"/>
     <use x="63.623047" xlink:href="#DejaVuSans-38"/>
    </g>
   </g>
   <g id="text_54">
    <!-- 39 -->
    <g transform="translate(366.80903 235.021354)scale(0.1 -0.1)">
     <use xlink:href="#DejaVuSans-33"/>
     <use x="63.623047" xlink:href="#DejaVuSans-39"/>
    </g>
   </g>
   <g id="text_55">
    <!-- 40 -->
    <g transform="translate(654.984747 199.877974)scale(0.1 -0.1)">
     <use xlink:href="#DejaVuSans-34"/>
     <use x="63.623047" xlink:href="#DejaVuSans-30"/>
    </g>
   </g>
   <g id="text_56">
    <!-- 41 -->
    <g transform="translate(271.921904 266.650397)scale(0.1 -0.1)">
     <use xlink:href="#DejaVuSans-34"/>
     <use x="63.623047" xlink:href="#DejaVuSans-31"/>
    </g>
   </g>
   <g id="text_57">
    <!-- 42 -->
    <g transform="translate(1045.076266 632.14155)scale(0.1 -0.1)">
     <use xlink:href="#DejaVuSans-34"/>
     <use x="63.623047" xlink:href="#DejaVuSans-32"/>
    </g>
   </g>
   <g id="text_58">
    <!-- 43 -->
    <g transform="translate(1129.420378 291.250763)scale(0.1 -0.1)">
     <use xlink:href="#DejaVuSans-34"/>
     <use x="63.623047" xlink:href="#DejaVuSans-33"/>
    </g>
   </g>
   <g id="text_59">
    <!-- 44 -->
    <g transform="translate(992.361196 987.089689)scale(0.1 -0.1)">
     <use xlink:href="#DejaVuSans-34"/>
     <use x="63.623047" xlink:href="#DejaVuSans-34"/>
    </g>
   </g>
  </g>
 </g>
 <defs>
  <clipPath id="pc5f5d15250">
   <rect height="1152" width="1132.671141" x="153.66443" y="144"/>
  </clipPath>
 </defs>
</svg>
