<?xml version="1.0" encoding="utf-8" standalone="no"?>
<!DOCTYPE svg PUBLIC "-//W3C//DTD SVG 1.1//EN"
  "http://www.w3.org/Graphics/SVG/1.1/DTD/svg11.dtd">
<svg height="1440pt" version="1.1" viewBox="0 0 1440 1440" width="1440pt" xmlns="http://www.w3.org/2000/svg" xmlns:xlink="http://www.w3.org/1999/xlink">
 <metadata>
  <rdf:RDF xmlns:cc="http://creativecommons.org/ns#" xmlns:dc="http://purl.org/dc/elements/1.1/" xmlns:rdf="http://www.w3.org/1999/02/22-rdf-syntax-ns#">
   <cc:Work>
    <dc:type rdf:resource="http://purl.org/dc/dcmitype/StillImage"/>
    <dc:date>2022-01-07T23:40:40.953679</dc:date>
    <dc:format>image/svg+xml</dc:format>
    <dc:creator>
     <cc:Agent>
      <dc:title>Matplotlib v3.4.3, https://matplotlib.org/</dc:title>
     </cc:Agent>
    </dc:creator>
   </cc:Work>
  </rdf:RDF>
 </metadata>
 <defs>
  <style type="text/css">*{stroke-linecap:butt;stroke-linejoin:round;}</style>
 </defs>
 <g id="figure_1">
  <g id="patch_1">
   <path d="M 0 1440 
L 1440 1440 
L 1440 0 
L 0 0 
z
" style="fill:#ffffff;"/>
  </g>
  <g id="axes_1">
   <g id="patch_2">
    <path d="M 159.515152 1296 
L 1280.484848 1296 
L 1280.484848 144 
L 159.515152 144 
z
" style="fill:#ffffff;"/>
   </g>
   <g id="PathCollection_1">
    <defs>
     <path d="M 0 3 
C 0.795609 3 1.55874 2.683901 2.12132 2.12132 
C 2.683901 1.55874 3 0.795609 3 0 
C 3 -0.795609 2.683901 -1.55874 2.12132 -2.12132 
C 1.55874 -2.683901 0.795609 -3 0 -3 
C -0.795609 -3 -1.55874 -2.683901 -2.12132 -2.12132 
C -2.683901 -1.55874 -3 -0.795609 -3 0 
C -3 0.795609 -2.683901 1.55874 -2.12132 2.12132 
C -1.55874 2.683901 -0.795609 3 0 3 
z
" id="m554fff4225" style="stroke:#ff0000;"/>
    </defs>
    <g clip-path="url(#pbc0c4f9f8e)">
     <use style="fill:#ff0000;stroke:#ff0000;" x="700.606061" xlink:href="#m554fff4225" y="940.385675"/>
     <use style="fill:#ff0000;stroke:#ff0000;" x="757.024793" xlink:href="#m554fff4225" y="852.231405"/>
     <use style="fill:#ff0000;stroke:#ff0000;" x="834.600551" xlink:href="#m554fff4225" y="1074.380165"/>
     <use style="fill:#ff0000;stroke:#ff0000;" x="252.782369" xlink:href="#m554fff4225" y="707.658402"/>
     <use style="fill:#ff0000;stroke:#ff0000;" x="1130.798898" xlink:href="#m554fff4225" y="467.878788"/>
     <use style="fill:#ff0000;stroke:#ff0000;" x="1204.848485" xlink:href="#m554fff4225" y="947.438017"/>
     <use style="fill:#ff0000;stroke:#ff0000;" x="675.922865" xlink:href="#m554fff4225" y="739.393939"/>
     <use style="fill:#ff0000;stroke:#ff0000;" x="1180.165289" xlink:href="#m554fff4225" y="912.176309"/>
     <use style="fill:#ff0000;stroke:#ff0000;" x="876.914601" xlink:href="#m554fff4225" y="975.647383"/>
     <use style="fill:#ff0000;stroke:#ff0000;" x="838.126722" xlink:href="#m554fff4225" y="919.22865"/>
     <use style="fill:#ff0000;stroke:#ff0000;" x="1222.479339" xlink:href="#m554fff4225" y="1159.008264"/>
     <use style="fill:#ff0000;stroke:#ff0000;" x="827.548209" xlink:href="#m554fff4225" y="196.363636"/>
     <use style="fill:#ff0000;stroke:#ff0000;" x="1084.958678" xlink:href="#m554fff4225" y="407.933884"/>
     <use style="fill:#ff0000;stroke:#ff0000;" x="757.024793" xlink:href="#m554fff4225" y="898.071625"/>
     <use style="fill:#ff0000;stroke:#ff0000;" x="725.289256" xlink:href="#m554fff4225" y="887.493113"/>
     <use style="fill:#ff0000;stroke:#ff0000;" x="686.501377" xlink:href="#m554fff4225" y="446.721763"/>
     <use style="fill:#ff0000;stroke:#ff0000;" x="365.619835" xlink:href="#m554fff4225" y="1028.539945"/>
     <use style="fill:#ff0000;stroke:#ff0000;" x="665.344353" xlink:href="#m554fff4225" y="749.972452"/>
     <use style="fill:#ff0000;stroke:#ff0000;" x="1226.00551" xlink:href="#m554fff4225" y="1151.955923"/>
     <use style="fill:#ff0000;stroke:#ff0000;" x="414.986226" xlink:href="#m554fff4225" y="1151.955923"/>
     <use style="fill:#ff0000;stroke:#ff0000;" x="668.870523" xlink:href="#m554fff4225" y="848.705234"/>
     <use style="fill:#ff0000;stroke:#ff0000;" x="834.600551" xlink:href="#m554fff4225" y="721.763085"/>
     <use style="fill:#ff0000;stroke:#ff0000;" x="1063.801653" xlink:href="#m554fff4225" y="690.027548"/>
     <use style="fill:#ff0000;stroke:#ff0000;" x="919.22865" xlink:href="#m554fff4225" y="580.716253"/>
     <use style="fill:#ff0000;stroke:#ff0000;" x="1053.22314" xlink:href="#m554fff4225" y="940.385675"/>
     <use style="fill:#ff0000;stroke:#ff0000;" x="950.964187" xlink:href="#m554fff4225" y="577.190083"/>
     <use style="fill:#ff0000;stroke:#ff0000;" x="527.823691" xlink:href="#m554fff4225" y="453.774105"/>
     <use style="fill:#ff0000;stroke:#ff0000;" x="682.975207" xlink:href="#m554fff4225" y="531.349862"/>
     <use style="fill:#ff0000;stroke:#ff0000;" x="1049.69697" xlink:href="#m554fff4225" y="626.556474"/>
     <use style="fill:#ff0000;stroke:#ff0000;" x="1063.801653" xlink:href="#m554fff4225" y="545.454545"/>
     <use style="fill:#ff0000;stroke:#ff0000;" x="506.666667" xlink:href="#m554fff4225" y="940.385675"/>
     <use style="fill:#ff0000;stroke:#ff0000;" x="1123.746556" xlink:href="#m554fff4225" y="760.550964"/>
     <use style="fill:#ff0000;stroke:#ff0000;" x="355.041322" xlink:href="#m554fff4225" y="1197.796143"/>
     <use style="fill:#ff0000;stroke:#ff0000;" x="958.016529" xlink:href="#m554fff4225" y="228.099174"/>
     <use style="fill:#ff0000;stroke:#ff0000;" x="517.245179" xlink:href="#m554fff4225" y="439.669421"/>
     <use style="fill:#ff0000;stroke:#ff0000;" x="1077.906336" xlink:href="#m554fff4225" y="1028.539945"/>
     <use style="fill:#ff0000;stroke:#ff0000;" x="552.506887" xlink:href="#m554fff4225" y="1113.168044"/>
     <use style="fill:#ff0000;stroke:#ff0000;" x="224.573003" xlink:href="#m554fff4225" y="612.451791"/>
     <use style="fill:#ff0000;stroke:#ff0000;" x="358.567493" xlink:href="#m554fff4225" y="323.305785"/>
     <use style="fill:#ff0000;stroke:#ff0000;" x="693.553719" xlink:href="#m554fff4225" y="1187.217631"/>
     <use style="fill:#ff0000;stroke:#ff0000;" x="457.300275" xlink:href="#m554fff4225" y="912.176309"/>
     <use style="fill:#ff0000;stroke:#ff0000;" x="630.082645" xlink:href="#m554fff4225" y="982.699725"/>
     <use style="fill:#ff0000;stroke:#ff0000;" x="210.46832" xlink:href="#m554fff4225" y="464.352617"/>
     <use style="fill:#ff0000;stroke:#ff0000;" x="1077.906336" xlink:href="#m554fff4225" y="400.881543"/>
     <use style="fill:#ff0000;stroke:#ff0000;" x="478.4573" xlink:href="#m554fff4225" y="608.92562"/>
     <use style="fill:#ff0000;stroke:#ff0000;" x="891.019284" xlink:href="#m554fff4225" y="838.126722"/>
     <use style="fill:#ff0000;stroke:#ff0000;" x="1169.586777" xlink:href="#m554fff4225" y="213.99449"/>
     <use style="fill:#ff0000;stroke:#ff0000;" x="210.46832" xlink:href="#m554fff4225" y="1201.322314"/>
     <use style="fill:#ff0000;stroke:#ff0000;" x="467.878788" xlink:href="#m554fff4225" y="704.132231"/>
     <use style="fill:#ff0000;stroke:#ff0000;" x="587.768595" xlink:href="#m554fff4225" y="707.658402"/>
     <use style="fill:#ff0000;stroke:#ff0000;" x="1056.749311" xlink:href="#m554fff4225" y="933.333333"/>
     <use style="fill:#ff0000;stroke:#ff0000;" x="228.099174" xlink:href="#m554fff4225" y="563.085399"/>
     <use style="fill:#ff0000;stroke:#ff0000;" x="393.829201" xlink:href="#m554fff4225" y="369.146006"/>
     <use style="fill:#ff0000;stroke:#ff0000;" x="682.975207" xlink:href="#m554fff4225" y="302.14876"/>
     <use style="fill:#ff0000;stroke:#ff0000;" x="443.195592" xlink:href="#m554fff4225" y="887.493113"/>
     <use style="fill:#ff0000;stroke:#ff0000;" x="989.752066" xlink:href="#m554fff4225" y="894.545455"/>
     <use style="fill:#ff0000;stroke:#ff0000;" x="707.658402" xlink:href="#m554fff4225" y="1236.584022"/>
     <use style="fill:#ff0000;stroke:#ff0000;" x="333.884298" xlink:href="#m554fff4225" y="291.570248"/>
     <use style="fill:#ff0000;stroke:#ff0000;" x="358.567493" xlink:href="#m554fff4225" y="1123.746556"/>
     <use style="fill:#ff0000;stroke:#ff0000;" x="707.658402" xlink:href="#m554fff4225" y="764.077135"/>
     <use style="fill:#ff0000;stroke:#ff0000;" x="270.413223" xlink:href="#m554fff4225" y="887.493113"/>
     <use style="fill:#ff0000;stroke:#ff0000;" x="792.286501" xlink:href="#m554fff4225" y="429.090909"/>
     <use style="fill:#ff0000;stroke:#ff0000;" x="961.5427" xlink:href="#m554fff4225" y="340.936639"/>
     <use style="fill:#ff0000;stroke:#ff0000;" x="1000.330579" xlink:href="#m554fff4225" y="1099.063361"/>
     <use style="fill:#ff0000;stroke:#ff0000;" x="760.550964" xlink:href="#m554fff4225" y="1141.37741"/>
     <use style="fill:#ff0000;stroke:#ff0000;" x="513.719008" xlink:href="#m554fff4225" y="862.809917"/>
     <use style="fill:#ff0000;stroke:#ff0000;" x="538.402204" xlink:href="#m554fff4225" y="541.928375"/>
     <use style="fill:#ff0000;stroke:#ff0000;" x="538.402204" xlink:href="#m554fff4225" y="697.07989"/>
     <use style="fill:#ff0000;stroke:#ff0000;" x="1208.374656" xlink:href="#m554fff4225" y="326.831956"/>
     <use style="fill:#ff0000;stroke:#ff0000;" x="453.774105" xlink:href="#m554fff4225" y="302.14876"/>
     <use style="fill:#ff0000;stroke:#ff0000;" x="478.4573" xlink:href="#m554fff4225" y="429.090909"/>
     <use style="fill:#ff0000;stroke:#ff0000;" x="806.391185" xlink:href="#m554fff4225" y="1229.53168"/>
     <use style="fill:#ff0000;stroke:#ff0000;" x="859.283747" xlink:href="#m554fff4225" y="690.027548"/>
     <use style="fill:#ff0000;stroke:#ff0000;" x="806.391185" xlink:href="#m554fff4225" y="1081.432507"/>
     <use style="fill:#ff0000;stroke:#ff0000;" x="288.044077" xlink:href="#m554fff4225" y="647.713499"/>
     <use style="fill:#ff0000;stroke:#ff0000;" x="852.231405" xlink:href="#m554fff4225" y="1233.057851"/>
     <use style="fill:#ff0000;stroke:#ff0000;" x="221.046832" xlink:href="#m554fff4225" y="1092.011019"/>
     <use style="fill:#ff0000;stroke:#ff0000;" x="615.977961" xlink:href="#m554fff4225" y="919.22865"/>
     <use style="fill:#ff0000;stroke:#ff0000;" x="1229.53168" xlink:href="#m554fff4225" y="1113.168044"/>
     <use style="fill:#ff0000;stroke:#ff0000;" x="827.548209" xlink:href="#m554fff4225" y="524.297521"/>
     <use style="fill:#ff0000;stroke:#ff0000;" x="1183.69146" xlink:href="#m554fff4225" y="591.294766"/>
     <use style="fill:#ff0000;stroke:#ff0000;" x="259.834711" xlink:href="#m554fff4225" y="527.823691"/>
     <use style="fill:#ff0000;stroke:#ff0000;" x="838.126722" xlink:href="#m554fff4225" y="1201.322314"/>
     <use style="fill:#ff0000;stroke:#ff0000;" x="221.046832" xlink:href="#m554fff4225" y="1243.636364"/>
     <use style="fill:#ff0000;stroke:#ff0000;" x="503.140496" xlink:href="#m554fff4225" y="460.826446"/>
     <use style="fill:#ff0000;stroke:#ff0000;" x="545.454545" xlink:href="#m554fff4225" y="1148.429752"/>
     <use style="fill:#ff0000;stroke:#ff0000;" x="552.506887" xlink:href="#m554fff4225" y="221.046832"/>
     <use style="fill:#ff0000;stroke:#ff0000;" x="404.407713" xlink:href="#m554fff4225" y="1180.165289"/>
     <use style="fill:#ff0000;stroke:#ff0000;" x="880.440771" xlink:href="#m554fff4225" y="510.192837"/>
     <use style="fill:#ff0000;stroke:#ff0000;" x="1218.953168" xlink:href="#m554fff4225" y="619.504132"/>
     <use style="fill:#ff0000;stroke:#ff0000;" x="898.071625" xlink:href="#m554fff4225" y="1243.636364"/>
     <use style="fill:#ff0000;stroke:#ff0000;" x="474.931129" xlink:href="#m554fff4225" y="739.393939"/>
     <use style="fill:#ff0000;stroke:#ff0000;" x="1208.374656" xlink:href="#m554fff4225" y="898.071625"/>
     <use style="fill:#ff0000;stroke:#ff0000;" x="1173.112948" xlink:href="#m554fff4225" y="1056.749311"/>
     <use style="fill:#ff0000;stroke:#ff0000;" x="778.181818" xlink:href="#m554fff4225" y="1134.325069"/>
     <use style="fill:#ff0000;stroke:#ff0000;" x="718.236915" xlink:href="#m554fff4225" y="1240.110193"/>
     <use style="fill:#ff0000;stroke:#ff0000;" x="1130.798898" xlink:href="#m554fff4225" y="1049.69697"/>
     <use style="fill:#ff0000;stroke:#ff0000;" x="975.647383" xlink:href="#m554fff4225" y="305.674931"/>
     <use style="fill:#ff0000;stroke:#ff0000;" x="605.399449" xlink:href="#m554fff4225" y="883.966942"/>
     <use style="fill:#ff0000;stroke:#ff0000;" x="1092.011019" xlink:href="#m554fff4225" y="1190.743802"/>
    </g>
   </g>
   <g id="matplotlib.axis_1">
    <g id="xtick_1">
     <g id="line2d_1">
      <defs>
       <path d="M 0 0 
L 0 3.5 
" id="md35e88f908" style="stroke:#000000;stroke-width:0.8;"/>
      </defs>
      <g>
       <use style="stroke:#000000;stroke-width:0.8;" x="189.311295" xlink:href="#md35e88f908" y="1296"/>
      </g>
     </g>
     <g id="text_1">
      <!-- 0 -->
      <g transform="translate(186.130045 1310.598438)scale(0.1 -0.1)">
       <defs>
        <path d="M 2034 4250 
Q 1547 4250 1301 3770 
Q 1056 3291 1056 2328 
Q 1056 1369 1301 889 
Q 1547 409 2034 409 
Q 2525 409 2770 889 
Q 3016 1369 3016 2328 
Q 3016 3291 2770 3770 
Q 2525 4250 2034 4250 
z
M 2034 4750 
Q 2819 4750 3233 4129 
Q 3647 3509 3647 2328 
Q 3647 1150 3233 529 
Q 2819 -91 2034 -91 
Q 1250 -91 836 529 
Q 422 1150 422 2328 
Q 422 3509 836 4129 
Q 1250 4750 2034 4750 
z
" id="DejaVuSans-30" transform="scale(0.015625)"/>
       </defs>
       <use xlink:href="#DejaVuSans-30"/>
      </g>
     </g>
    </g>
    <g id="xtick_2">
     <g id="line2d_2">
      <g>
       <use style="stroke:#000000;stroke-width:0.8;" x="365.619835" xlink:href="#md35e88f908" y="1296"/>
      </g>
     </g>
     <g id="text_2">
      <!-- 50 -->
      <g transform="translate(359.257335 1310.598438)scale(0.1 -0.1)">
       <defs>
        <path d="M 691 4666 
L 3169 4666 
L 3169 4134 
L 1269 4134 
L 1269 2991 
Q 1406 3038 1543 3061 
Q 1681 3084 1819 3084 
Q 2600 3084 3056 2656 
Q 3513 2228 3513 1497 
Q 3513 744 3044 326 
Q 2575 -91 1722 -91 
Q 1428 -91 1123 -41 
Q 819 9 494 109 
L 494 744 
Q 775 591 1075 516 
Q 1375 441 1709 441 
Q 2250 441 2565 725 
Q 2881 1009 2881 1497 
Q 2881 1984 2565 2268 
Q 2250 2553 1709 2553 
Q 1456 2553 1204 2497 
Q 953 2441 691 2322 
L 691 4666 
z
" id="DejaVuSans-35" transform="scale(0.015625)"/>
       </defs>
       <use xlink:href="#DejaVuSans-35"/>
       <use x="63.623047" xlink:href="#DejaVuSans-30"/>
      </g>
     </g>
    </g>
    <g id="xtick_3">
     <g id="line2d_3">
      <g>
       <use style="stroke:#000000;stroke-width:0.8;" x="541.928375" xlink:href="#md35e88f908" y="1296"/>
      </g>
     </g>
     <g id="text_3">
      <!-- 100 -->
      <g transform="translate(532.384625 1310.598438)scale(0.1 -0.1)">
       <defs>
        <path d="M 794 531 
L 1825 531 
L 1825 4091 
L 703 3866 
L 703 4441 
L 1819 4666 
L 2450 4666 
L 2450 531 
L 3481 531 
L 3481 0 
L 794 0 
L 794 531 
z
" id="DejaVuSans-31" transform="scale(0.015625)"/>
       </defs>
       <use xlink:href="#DejaVuSans-31"/>
       <use x="63.623047" xlink:href="#DejaVuSans-30"/>
       <use x="127.246094" xlink:href="#DejaVuSans-30"/>
      </g>
     </g>
    </g>
    <g id="xtick_4">
     <g id="line2d_4">
      <g>
       <use style="stroke:#000000;stroke-width:0.8;" x="718.236915" xlink:href="#md35e88f908" y="1296"/>
      </g>
     </g>
     <g id="text_4">
      <!-- 150 -->
      <g transform="translate(708.693165 1310.598438)scale(0.1 -0.1)">
       <use xlink:href="#DejaVuSans-31"/>
       <use x="63.623047" xlink:href="#DejaVuSans-35"/>
       <use x="127.246094" xlink:href="#DejaVuSans-30"/>
      </g>
     </g>
    </g>
    <g id="xtick_5">
     <g id="line2d_5">
      <g>
       <use style="stroke:#000000;stroke-width:0.8;" x="894.545455" xlink:href="#md35e88f908" y="1296"/>
      </g>
     </g>
     <g id="text_5">
      <!-- 200 -->
      <g transform="translate(885.001705 1310.598438)scale(0.1 -0.1)">
       <defs>
        <path d="M 1228 531 
L 3431 531 
L 3431 0 
L 469 0 
L 469 531 
Q 828 903 1448 1529 
Q 2069 2156 2228 2338 
Q 2531 2678 2651 2914 
Q 2772 3150 2772 3378 
Q 2772 3750 2511 3984 
Q 2250 4219 1831 4219 
Q 1534 4219 1204 4116 
Q 875 4013 500 3803 
L 500 4441 
Q 881 4594 1212 4672 
Q 1544 4750 1819 4750 
Q 2544 4750 2975 4387 
Q 3406 4025 3406 3419 
Q 3406 3131 3298 2873 
Q 3191 2616 2906 2266 
Q 2828 2175 2409 1742 
Q 1991 1309 1228 531 
z
" id="DejaVuSans-32" transform="scale(0.015625)"/>
       </defs>
       <use xlink:href="#DejaVuSans-32"/>
       <use x="63.623047" xlink:href="#DejaVuSans-30"/>
       <use x="127.246094" xlink:href="#DejaVuSans-30"/>
      </g>
     </g>
    </g>
    <g id="xtick_6">
     <g id="line2d_6">
      <g>
       <use style="stroke:#000000;stroke-width:0.8;" x="1070.853994" xlink:href="#md35e88f908" y="1296"/>
      </g>
     </g>
     <g id="text_6">
      <!-- 250 -->
      <g transform="translate(1061.310244 1310.598438)scale(0.1 -0.1)">
       <use xlink:href="#DejaVuSans-32"/>
       <use x="63.623047" xlink:href="#DejaVuSans-35"/>
       <use x="127.246094" xlink:href="#DejaVuSans-30"/>
      </g>
     </g>
    </g>
    <g id="xtick_7">
     <g id="line2d_7">
      <g>
       <use style="stroke:#000000;stroke-width:0.8;" x="1247.162534" xlink:href="#md35e88f908" y="1296"/>
      </g>
     </g>
     <g id="text_7">
      <!-- 300 -->
      <g transform="translate(1237.618784 1310.598438)scale(0.1 -0.1)">
       <defs>
        <path d="M 2597 2516 
Q 3050 2419 3304 2112 
Q 3559 1806 3559 1356 
Q 3559 666 3084 287 
Q 2609 -91 1734 -91 
Q 1441 -91 1130 -33 
Q 819 25 488 141 
L 488 750 
Q 750 597 1062 519 
Q 1375 441 1716 441 
Q 2309 441 2620 675 
Q 2931 909 2931 1356 
Q 2931 1769 2642 2001 
Q 2353 2234 1838 2234 
L 1294 2234 
L 1294 2753 
L 1863 2753 
Q 2328 2753 2575 2939 
Q 2822 3125 2822 3475 
Q 2822 3834 2567 4026 
Q 2313 4219 1838 4219 
Q 1578 4219 1281 4162 
Q 984 4106 628 3988 
L 628 4550 
Q 988 4650 1302 4700 
Q 1616 4750 1894 4750 
Q 2613 4750 3031 4423 
Q 3450 4097 3450 3541 
Q 3450 3153 3228 2886 
Q 3006 2619 2597 2516 
z
" id="DejaVuSans-33" transform="scale(0.015625)"/>
       </defs>
       <use xlink:href="#DejaVuSans-33"/>
       <use x="63.623047" xlink:href="#DejaVuSans-30"/>
       <use x="127.246094" xlink:href="#DejaVuSans-30"/>
      </g>
     </g>
    </g>
   </g>
   <g id="matplotlib.axis_2">
    <g id="ytick_1">
     <g id="line2d_8">
      <defs>
       <path d="M 0 0 
L -3.5 0 
" id="m482201ed68" style="stroke:#000000;stroke-width:0.8;"/>
      </defs>
      <g>
       <use style="stroke:#000000;stroke-width:0.8;" x="159.515152" xlink:href="#m482201ed68" y="1254.214876"/>
      </g>
     </g>
     <g id="text_8">
      <!-- 0 -->
      <g transform="translate(146.152652 1258.014095)scale(0.1 -0.1)">
       <use xlink:href="#DejaVuSans-30"/>
      </g>
     </g>
    </g>
    <g id="ytick_2">
     <g id="line2d_9">
      <g>
       <use style="stroke:#000000;stroke-width:0.8;" x="159.515152" xlink:href="#m482201ed68" y="1077.906336"/>
      </g>
     </g>
     <g id="text_9">
      <!-- 50 -->
      <g transform="translate(139.790152 1081.705555)scale(0.1 -0.1)">
       <use xlink:href="#DejaVuSans-35"/>
       <use x="63.623047" xlink:href="#DejaVuSans-30"/>
      </g>
     </g>
    </g>
    <g id="ytick_3">
     <g id="line2d_10">
      <g>
       <use style="stroke:#000000;stroke-width:0.8;" x="159.515152" xlink:href="#m482201ed68" y="901.597796"/>
      </g>
     </g>
     <g id="text_10">
      <!-- 100 -->
      <g transform="translate(133.427652 905.397015)scale(0.1 -0.1)">
       <use xlink:href="#DejaVuSans-31"/>
       <use x="63.623047" xlink:href="#DejaVuSans-30"/>
       <use x="127.246094" xlink:href="#DejaVuSans-30"/>
      </g>
     </g>
    </g>
    <g id="ytick_4">
     <g id="line2d_11">
      <g>
       <use style="stroke:#000000;stroke-width:0.8;" x="159.515152" xlink:href="#m482201ed68" y="725.289256"/>
      </g>
     </g>
     <g id="text_11">
      <!-- 150 -->
      <g transform="translate(133.427652 729.088475)scale(0.1 -0.1)">
       <use xlink:href="#DejaVuSans-31"/>
       <use x="63.623047" xlink:href="#DejaVuSans-35"/>
       <use x="127.246094" xlink:href="#DejaVuSans-30"/>
      </g>
     </g>
    </g>
    <g id="ytick_5">
     <g id="line2d_12">
      <g>
       <use style="stroke:#000000;stroke-width:0.8;" x="159.515152" xlink:href="#m482201ed68" y="548.980716"/>
      </g>
     </g>
     <g id="text_12">
      <!-- 200 -->
      <g transform="translate(133.427652 552.779935)scale(0.1 -0.1)">
       <use xlink:href="#DejaVuSans-32"/>
       <use x="63.623047" xlink:href="#DejaVuSans-30"/>
       <use x="127.246094" xlink:href="#DejaVuSans-30"/>
      </g>
     </g>
    </g>
    <g id="ytick_6">
     <g id="line2d_13">
      <g>
       <use style="stroke:#000000;stroke-width:0.8;" x="159.515152" xlink:href="#m482201ed68" y="372.672176"/>
      </g>
     </g>
     <g id="text_13">
      <!-- 250 -->
      <g transform="translate(133.427652 376.471395)scale(0.1 -0.1)">
       <use xlink:href="#DejaVuSans-32"/>
       <use x="63.623047" xlink:href="#DejaVuSans-35"/>
       <use x="127.246094" xlink:href="#DejaVuSans-30"/>
      </g>
     </g>
    </g>
    <g id="ytick_7">
     <g id="line2d_14">
      <g>
       <use style="stroke:#000000;stroke-width:0.8;" x="159.515152" xlink:href="#m482201ed68" y="196.363636"/>
      </g>
     </g>
     <g id="text_14">
      <!-- 300 -->
      <g transform="translate(133.427652 200.162855)scale(0.1 -0.1)">
       <use xlink:href="#DejaVuSans-33"/>
       <use x="63.623047" xlink:href="#DejaVuSans-30"/>
       <use x="127.246094" xlink:href="#DejaVuSans-30"/>
      </g>
     </g>
    </g>
   </g>
   <g id="line2d_15">
    <path clip-path="url(#pbc0c4f9f8e)" d="M 221.046832 1243.636364 
L 898.071625 1243.636364 
L 1222.479339 1159.008264 
L 1226.00551 1151.955923 
L 1229.53168 1113.168044 
L 1218.953168 619.504132 
L 1208.374656 326.831956 
L 1169.586777 213.99449 
L 827.548209 196.363636 
L 552.506887 221.046832 
L 333.884298 291.570248 
L 210.46832 464.352617 
L 210.46832 1201.322314 
L 221.046832 1243.636364 
" style="fill:none;stroke:#1f77b4;stroke-linecap:square;stroke-width:1.5;"/>
   </g>
   <g id="patch_3">
    <path d="M 159.515152 1296 
L 159.515152 144 
" style="fill:none;stroke:#000000;stroke-linecap:square;stroke-linejoin:miter;stroke-width:0.8;"/>
   </g>
   <g id="patch_4">
    <path d="M 1280.484848 1296 
L 1280.484848 144 
" style="fill:none;stroke:#000000;stroke-linecap:square;stroke-linejoin:miter;stroke-width:0.8;"/>
   </g>
   <g id="patch_5">
    <path d="M 159.515152 1296 
L 1280.484848 1296 
" style="fill:none;stroke:#000000;stroke-linecap:square;stroke-linejoin:miter;stroke-width:0.8;"/>
   </g>
   <g id="patch_6">
    <path d="M 159.515152 144 
L 1280.484848 144 
" style="fill:none;stroke:#000000;stroke-linecap:square;stroke-linejoin:miter;stroke-width:0.8;"/>
   </g>
   <g id="text_15">
    <!-- 0 -->
    <g transform="translate(700.606061 940.385675)scale(0.1 -0.1)">
     <use xlink:href="#DejaVuSans-30"/>
    </g>
   </g>
   <g id="text_16">
    <!-- 1 -->
    <g transform="translate(757.024793 852.231405)scale(0.1 -0.1)">
     <use xlink:href="#DejaVuSans-31"/>
    </g>
   </g>
   <g id="text_17">
    <!-- 2 -->
    <g transform="translate(834.600551 1074.380165)scale(0.1 -0.1)">
     <use xlink:href="#DejaVuSans-32"/>
    </g>
   </g>
   <g id="text_18">
    <!-- 3 -->
    <g transform="translate(252.782369 707.658402)scale(0.1 -0.1)">
     <use xlink:href="#DejaVuSans-33"/>
    </g>
   </g>
   <g id="text_19">
    <!-- 4 -->
    <g transform="translate(1130.798898 467.878788)scale(0.1 -0.1)">
     <defs>
      <path d="M 2419 4116 
L 825 1625 
L 2419 1625 
L 2419 4116 
z
M 2253 4666 
L 3047 4666 
L 3047 1625 
L 3713 1625 
L 3713 1100 
L 3047 1100 
L 3047 0 
L 2419 0 
L 2419 1100 
L 313 1100 
L 313 1709 
L 2253 4666 
z
" id="DejaVuSans-34" transform="scale(0.015625)"/>
     </defs>
     <use xlink:href="#DejaVuSans-34"/>
    </g>
   </g>
   <g id="text_20">
    <!-- 5 -->
    <g transform="translate(1204.848485 947.438017)scale(0.1 -0.1)">
     <use xlink:href="#DejaVuSans-35"/>
    </g>
   </g>
   <g id="text_21">
    <!-- 6 -->
    <g transform="translate(675.922865 739.393939)scale(0.1 -0.1)">
     <defs>
      <path d="M 2113 2584 
Q 1688 2584 1439 2293 
Q 1191 2003 1191 1497 
Q 1191 994 1439 701 
Q 1688 409 2113 409 
Q 2538 409 2786 701 
Q 3034 994 3034 1497 
Q 3034 2003 2786 2293 
Q 2538 2584 2113 2584 
z
M 3366 4563 
L 3366 3988 
Q 3128 4100 2886 4159 
Q 2644 4219 2406 4219 
Q 1781 4219 1451 3797 
Q 1122 3375 1075 2522 
Q 1259 2794 1537 2939 
Q 1816 3084 2150 3084 
Q 2853 3084 3261 2657 
Q 3669 2231 3669 1497 
Q 3669 778 3244 343 
Q 2819 -91 2113 -91 
Q 1303 -91 875 529 
Q 447 1150 447 2328 
Q 447 3434 972 4092 
Q 1497 4750 2381 4750 
Q 2619 4750 2861 4703 
Q 3103 4656 3366 4563 
z
" id="DejaVuSans-36" transform="scale(0.015625)"/>
     </defs>
     <use xlink:href="#DejaVuSans-36"/>
    </g>
   </g>
   <g id="text_22">
    <!-- 7 -->
    <g transform="translate(1180.165289 912.176309)scale(0.1 -0.1)">
     <defs>
      <path d="M 525 4666 
L 3525 4666 
L 3525 4397 
L 1831 0 
L 1172 0 
L 2766 4134 
L 525 4134 
L 525 4666 
z
" id="DejaVuSans-37" transform="scale(0.015625)"/>
     </defs>
     <use xlink:href="#DejaVuSans-37"/>
    </g>
   </g>
   <g id="text_23">
    <!-- 8 -->
    <g transform="translate(876.914601 975.647383)scale(0.1 -0.1)">
     <defs>
      <path d="M 2034 2216 
Q 1584 2216 1326 1975 
Q 1069 1734 1069 1313 
Q 1069 891 1326 650 
Q 1584 409 2034 409 
Q 2484 409 2743 651 
Q 3003 894 3003 1313 
Q 3003 1734 2745 1975 
Q 2488 2216 2034 2216 
z
M 1403 2484 
Q 997 2584 770 2862 
Q 544 3141 544 3541 
Q 544 4100 942 4425 
Q 1341 4750 2034 4750 
Q 2731 4750 3128 4425 
Q 3525 4100 3525 3541 
Q 3525 3141 3298 2862 
Q 3072 2584 2669 2484 
Q 3125 2378 3379 2068 
Q 3634 1759 3634 1313 
Q 3634 634 3220 271 
Q 2806 -91 2034 -91 
Q 1263 -91 848 271 
Q 434 634 434 1313 
Q 434 1759 690 2068 
Q 947 2378 1403 2484 
z
M 1172 3481 
Q 1172 3119 1398 2916 
Q 1625 2713 2034 2713 
Q 2441 2713 2670 2916 
Q 2900 3119 2900 3481 
Q 2900 3844 2670 4047 
Q 2441 4250 2034 4250 
Q 1625 4250 1398 4047 
Q 1172 3844 1172 3481 
z
" id="DejaVuSans-38" transform="scale(0.015625)"/>
     </defs>
     <use xlink:href="#DejaVuSans-38"/>
    </g>
   </g>
   <g id="text_24">
    <!-- 9 -->
    <g transform="translate(838.126722 919.22865)scale(0.1 -0.1)">
     <defs>
      <path d="M 703 97 
L 703 672 
Q 941 559 1184 500 
Q 1428 441 1663 441 
Q 2288 441 2617 861 
Q 2947 1281 2994 2138 
Q 2813 1869 2534 1725 
Q 2256 1581 1919 1581 
Q 1219 1581 811 2004 
Q 403 2428 403 3163 
Q 403 3881 828 4315 
Q 1253 4750 1959 4750 
Q 2769 4750 3195 4129 
Q 3622 3509 3622 2328 
Q 3622 1225 3098 567 
Q 2575 -91 1691 -91 
Q 1453 -91 1209 -44 
Q 966 3 703 97 
z
M 1959 2075 
Q 2384 2075 2632 2365 
Q 2881 2656 2881 3163 
Q 2881 3666 2632 3958 
Q 2384 4250 1959 4250 
Q 1534 4250 1286 3958 
Q 1038 3666 1038 3163 
Q 1038 2656 1286 2365 
Q 1534 2075 1959 2075 
z
" id="DejaVuSans-39" transform="scale(0.015625)"/>
     </defs>
     <use xlink:href="#DejaVuSans-39"/>
    </g>
   </g>
   <g id="text_25">
    <!-- 10 -->
    <g transform="translate(1222.479339 1159.008264)scale(0.1 -0.1)">
     <use xlink:href="#DejaVuSans-31"/>
     <use x="63.623047" xlink:href="#DejaVuSans-30"/>
    </g>
   </g>
   <g id="text_26">
    <!-- 11 -->
    <g transform="translate(827.548209 196.363636)scale(0.1 -0.1)">
     <use xlink:href="#DejaVuSans-31"/>
     <use x="63.623047" xlink:href="#DejaVuSans-31"/>
    </g>
   </g>
   <g id="text_27">
    <!-- 12 -->
    <g transform="translate(1084.958678 407.933884)scale(0.1 -0.1)">
     <use xlink:href="#DejaVuSans-31"/>
     <use x="63.623047" xlink:href="#DejaVuSans-32"/>
    </g>
   </g>
   <g id="text_28">
    <!-- 13 -->
    <g transform="translate(757.024793 898.071625)scale(0.1 -0.1)">
     <use xlink:href="#DejaVuSans-31"/>
     <use x="63.623047" xlink:href="#DejaVuSans-33"/>
    </g>
   </g>
   <g id="text_29">
    <!-- 14 -->
    <g transform="translate(725.289256 887.493113)scale(0.1 -0.1)">
     <use xlink:href="#DejaVuSans-31"/>
     <use x="63.623047" xlink:href="#DejaVuSans-34"/>
    </g>
   </g>
   <g id="text_30">
    <!-- 15 -->
    <g transform="translate(686.501377 446.721763)scale(0.1 -0.1)">
     <use xlink:href="#DejaVuSans-31"/>
     <use x="63.623047" xlink:href="#DejaVuSans-35"/>
    </g>
   </g>
   <g id="text_31">
    <!-- 16 -->
    <g transform="translate(365.619835 1028.539945)scale(0.1 -0.1)">
     <use xlink:href="#DejaVuSans-31"/>
     <use x="63.623047" xlink:href="#DejaVuSans-36"/>
    </g>
   </g>
   <g id="text_32">
    <!-- 17 -->
    <g transform="translate(665.344353 749.972452)scale(0.1 -0.1)">
     <use xlink:href="#DejaVuSans-31"/>
     <use x="63.623047" xlink:href="#DejaVuSans-37"/>
    </g>
   </g>
   <g id="text_33">
    <!-- 18 -->
    <g transform="translate(1226.00551 1151.955923)scale(0.1 -0.1)">
     <use xlink:href="#DejaVuSans-31"/>
     <use x="63.623047" xlink:href="#DejaVuSans-38"/>
    </g>
   </g>
   <g id="text_34">
    <!-- 19 -->
    <g transform="translate(414.986226 1151.955923)scale(0.1 -0.1)">
     <use xlink:href="#DejaVuSans-31"/>
     <use x="63.623047" xlink:href="#DejaVuSans-39"/>
    </g>
   </g>
   <g id="text_35">
    <!-- 20 -->
    <g transform="translate(668.870523 848.705234)scale(0.1 -0.1)">
     <use xlink:href="#DejaVuSans-32"/>
     <use x="63.623047" xlink:href="#DejaVuSans-30"/>
    </g>
   </g>
   <g id="text_36">
    <!-- 21 -->
    <g transform="translate(834.600551 721.763085)scale(0.1 -0.1)">
     <use xlink:href="#DejaVuSans-32"/>
     <use x="63.623047" xlink:href="#DejaVuSans-31"/>
    </g>
   </g>
   <g id="text_37">
    <!-- 22 -->
    <g transform="translate(1063.801653 690.027548)scale(0.1 -0.1)">
     <use xlink:href="#DejaVuSans-32"/>
     <use x="63.623047" xlink:href="#DejaVuSans-32"/>
    </g>
   </g>
   <g id="text_38">
    <!-- 23 -->
    <g transform="translate(919.22865 580.716253)scale(0.1 -0.1)">
     <use xlink:href="#DejaVuSans-32"/>
     <use x="63.623047" xlink:href="#DejaVuSans-33"/>
    </g>
   </g>
   <g id="text_39">
    <!-- 24 -->
    <g transform="translate(1053.22314 940.385675)scale(0.1 -0.1)">
     <use xlink:href="#DejaVuSans-32"/>
     <use x="63.623047" xlink:href="#DejaVuSans-34"/>
    </g>
   </g>
   <g id="text_40">
    <!-- 25 -->
    <g transform="translate(950.964187 577.190083)scale(0.1 -0.1)">
     <use xlink:href="#DejaVuSans-32"/>
     <use x="63.623047" xlink:href="#DejaVuSans-35"/>
    </g>
   </g>
   <g id="text_41">
    <!-- 26 -->
    <g transform="translate(527.823691 453.774105)scale(0.1 -0.1)">
     <use xlink:href="#DejaVuSans-32"/>
     <use x="63.623047" xlink:href="#DejaVuSans-36"/>
    </g>
   </g>
   <g id="text_42">
    <!-- 27 -->
    <g transform="translate(682.975207 531.349862)scale(0.1 -0.1)">
     <use xlink:href="#DejaVuSans-32"/>
     <use x="63.623047" xlink:href="#DejaVuSans-37"/>
    </g>
   </g>
   <g id="text_43">
    <!-- 28 -->
    <g transform="translate(1049.69697 626.556474)scale(0.1 -0.1)">
     <use xlink:href="#DejaVuSans-32"/>
     <use x="63.623047" xlink:href="#DejaVuSans-38"/>
    </g>
   </g>
   <g id="text_44">
    <!-- 29 -->
    <g transform="translate(1063.801653 545.454545)scale(0.1 -0.1)">
     <use xlink:href="#DejaVuSans-32"/>
     <use x="63.623047" xlink:href="#DejaVuSans-39"/>
    </g>
   </g>
   <g id="text_45">
    <!-- 30 -->
    <g transform="translate(506.666667 940.385675)scale(0.1 -0.1)">
     <use xlink:href="#DejaVuSans-33"/>
     <use x="63.623047" xlink:href="#DejaVuSans-30"/>
    </g>
   </g>
   <g id="text_46">
    <!-- 31 -->
    <g transform="translate(1123.746556 760.550964)scale(0.1 -0.1)">
     <use xlink:href="#DejaVuSans-33"/>
     <use x="63.623047" xlink:href="#DejaVuSans-31"/>
    </g>
   </g>
   <g id="text_47">
    <!-- 32 -->
    <g transform="translate(355.041322 1197.796143)scale(0.1 -0.1)">
     <use xlink:href="#DejaVuSans-33"/>
     <use x="63.623047" xlink:href="#DejaVuSans-32"/>
    </g>
   </g>
   <g id="text_48">
    <!-- 33 -->
    <g transform="translate(958.016529 228.099174)scale(0.1 -0.1)">
     <use xlink:href="#DejaVuSans-33"/>
     <use x="63.623047" xlink:href="#DejaVuSans-33"/>
    </g>
   </g>
   <g id="text_49">
    <!-- 34 -->
    <g transform="translate(517.245179 439.669421)scale(0.1 -0.1)">
     <use xlink:href="#DejaVuSans-33"/>
     <use x="63.623047" xlink:href="#DejaVuSans-34"/>
    </g>
   </g>
   <g id="text_50">
    <!-- 35 -->
    <g transform="translate(1077.906336 1028.539945)scale(0.1 -0.1)">
     <use xlink:href="#DejaVuSans-33"/>
     <use x="63.623047" xlink:href="#DejaVuSans-35"/>
    </g>
   </g>
   <g id="text_51">
    <!-- 36 -->
    <g transform="translate(552.506887 1113.168044)scale(0.1 -0.1)">
     <use xlink:href="#DejaVuSans-33"/>
     <use x="63.623047" xlink:href="#DejaVuSans-36"/>
    </g>
   </g>
   <g id="text_52">
    <!-- 37 -->
    <g transform="translate(224.573003 612.451791)scale(0.1 -0.1)">
     <use xlink:href="#DejaVuSans-33"/>
     <use x="63.623047" xlink:href="#DejaVuSans-37"/>
    </g>
   </g>
   <g id="text_53">
    <!-- 38 -->
    <g transform="translate(358.567493 323.305785)scale(0.1 -0.1)">
     <use xlink:href="#DejaVuSans-33"/>
     <use x="63.623047" xlink:href="#DejaVuSans-38"/>
    </g>
   </g>
   <g id="text_54">
    <!-- 39 -->
    <g transform="translate(693.553719 1187.217631)scale(0.1 -0.1)">
     <use xlink:href="#DejaVuSans-33"/>
     <use x="63.623047" xlink:href="#DejaVuSans-39"/>
    </g>
   </g>
   <g id="text_55">
    <!-- 40 -->
    <g transform="translate(457.300275 912.176309)scale(0.1 -0.1)">
     <use xlink:href="#DejaVuSans-34"/>
     <use x="63.623047" xlink:href="#DejaVuSans-30"/>
    </g>
   </g>
   <g id="text_56">
    <!-- 41 -->
    <g transform="translate(630.082645 982.699725)scale(0.1 -0.1)">
     <use xlink:href="#DejaVuSans-34"/>
     <use x="63.623047" xlink:href="#DejaVuSans-31"/>
    </g>
   </g>
   <g id="text_57">
    <!-- 42 -->
    <g transform="translate(210.46832 464.352617)scale(0.1 -0.1)">
     <use xlink:href="#DejaVuSans-34"/>
     <use x="63.623047" xlink:href="#DejaVuSans-32"/>
    </g>
   </g>
   <g id="text_58">
    <!-- 43 -->
    <g transform="translate(1077.906336 400.881543)scale(0.1 -0.1)">
     <use xlink:href="#DejaVuSans-34"/>
     <use x="63.623047" xlink:href="#DejaVuSans-33"/>
    </g>
   </g>
   <g id="text_59">
    <!-- 44 -->
    <g transform="translate(478.4573 608.92562)scale(0.1 -0.1)">
     <use xlink:href="#DejaVuSans-34"/>
     <use x="63.623047" xlink:href="#DejaVuSans-34"/>
    </g>
   </g>
   <g id="text_60">
    <!-- 45 -->
    <g transform="translate(891.019284 838.126722)scale(0.1 -0.1)">
     <use xlink:href="#DejaVuSans-34"/>
     <use x="63.623047" xlink:href="#DejaVuSans-35"/>
    </g>
   </g>
   <g id="text_61">
    <!-- 46 -->
    <g transform="translate(1169.586777 213.99449)scale(0.1 -0.1)">
     <use xlink:href="#DejaVuSans-34"/>
     <use x="63.623047" xlink:href="#DejaVuSans-36"/>
    </g>
   </g>
   <g id="text_62">
    <!-- 47 -->
    <g transform="translate(210.46832 1201.322314)scale(0.1 -0.1)">
     <use xlink:href="#DejaVuSans-34"/>
     <use x="63.623047" xlink:href="#DejaVuSans-37"/>
    </g>
   </g>
   <g id="text_63">
    <!-- 48 -->
    <g transform="translate(467.878788 704.132231)scale(0.1 -0.1)">
     <use xlink:href="#DejaVuSans-34"/>
     <use x="63.623047" xlink:href="#DejaVuSans-38"/>
    </g>
   </g>
   <g id="text_64">
    <!-- 49 -->
    <g transform="translate(587.768595 707.658402)scale(0.1 -0.1)">
     <use xlink:href="#DejaVuSans-34"/>
     <use x="63.623047" xlink:href="#DejaVuSans-39"/>
    </g>
   </g>
   <g id="text_65">
    <!-- 50 -->
    <g transform="translate(1056.749311 933.333333)scale(0.1 -0.1)">
     <use xlink:href="#DejaVuSans-35"/>
     <use x="63.623047" xlink:href="#DejaVuSans-30"/>
    </g>
   </g>
   <g id="text_66">
    <!-- 51 -->
    <g transform="translate(228.099174 563.085399)scale(0.1 -0.1)">
     <use xlink:href="#DejaVuSans-35"/>
     <use x="63.623047" xlink:href="#DejaVuSans-31"/>
    </g>
   </g>
   <g id="text_67">
    <!-- 52 -->
    <g transform="translate(393.829201 369.146006)scale(0.1 -0.1)">
     <use xlink:href="#DejaVuSans-35"/>
     <use x="63.623047" xlink:href="#DejaVuSans-32"/>
    </g>
   </g>
   <g id="text_68">
    <!-- 53 -->
    <g transform="translate(682.975207 302.14876)scale(0.1 -0.1)">
     <use xlink:href="#DejaVuSans-35"/>
     <use x="63.623047" xlink:href="#DejaVuSans-33"/>
    </g>
   </g>
   <g id="text_69">
    <!-- 54 -->
    <g transform="translate(443.195592 887.493113)scale(0.1 -0.1)">
     <use xlink:href="#DejaVuSans-35"/>
     <use x="63.623047" xlink:href="#DejaVuSans-34"/>
    </g>
   </g>
   <g id="text_70">
    <!-- 55 -->
    <g transform="translate(989.752066 894.545455)scale(0.1 -0.1)">
     <use xlink:href="#DejaVuSans-35"/>
     <use x="63.623047" xlink:href="#DejaVuSans-35"/>
    </g>
   </g>
   <g id="text_71">
    <!-- 56 -->
    <g transform="translate(707.658402 1236.584022)scale(0.1 -0.1)">
     <use xlink:href="#DejaVuSans-35"/>
     <use x="63.623047" xlink:href="#DejaVuSans-36"/>
    </g>
   </g>
   <g id="text_72">
    <!-- 57 -->
    <g transform="translate(333.884298 291.570248)scale(0.1 -0.1)">
     <use xlink:href="#DejaVuSans-35"/>
     <use x="63.623047" xlink:href="#DejaVuSans-37"/>
    </g>
   </g>
   <g id="text_73">
    <!-- 58 -->
    <g transform="translate(358.567493 1123.746556)scale(0.1 -0.1)">
     <use xlink:href="#DejaVuSans-35"/>
     <use x="63.623047" xlink:href="#DejaVuSans-38"/>
    </g>
   </g>
   <g id="text_74">
    <!-- 59 -->
    <g transform="translate(707.658402 764.077135)scale(0.1 -0.1)">
     <use xlink:href="#DejaVuSans-35"/>
     <use x="63.623047" xlink:href="#DejaVuSans-39"/>
    </g>
   </g>
   <g id="text_75">
    <!-- 60 -->
    <g transform="translate(270.413223 887.493113)scale(0.1 -0.1)">
     <use xlink:href="#DejaVuSans-36"/>
     <use x="63.623047" xlink:href="#DejaVuSans-30"/>
    </g>
   </g>
   <g id="text_76">
    <!-- 61 -->
    <g transform="translate(792.286501 429.090909)scale(0.1 -0.1)">
     <use xlink:href="#DejaVuSans-36"/>
     <use x="63.623047" xlink:href="#DejaVuSans-31"/>
    </g>
   </g>
   <g id="text_77">
    <!-- 62 -->
    <g transform="translate(961.5427 340.936639)scale(0.1 -0.1)">
     <use xlink:href="#DejaVuSans-36"/>
     <use x="63.623047" xlink:href="#DejaVuSans-32"/>
    </g>
   </g>
   <g id="text_78">
    <!-- 63 -->
    <g transform="translate(1000.330579 1099.063361)scale(0.1 -0.1)">
     <use xlink:href="#DejaVuSans-36"/>
     <use x="63.623047" xlink:href="#DejaVuSans-33"/>
    </g>
   </g>
   <g id="text_79">
    <!-- 64 -->
    <g transform="translate(760.550964 1141.37741)scale(0.1 -0.1)">
     <use xlink:href="#DejaVuSans-36"/>
     <use x="63.623047" xlink:href="#DejaVuSans-34"/>
    </g>
   </g>
   <g id="text_80">
    <!-- 65 -->
    <g transform="translate(513.719008 862.809917)scale(0.1 -0.1)">
     <use xlink:href="#DejaVuSans-36"/>
     <use x="63.623047" xlink:href="#DejaVuSans-35"/>
    </g>
   </g>
   <g id="text_81">
    <!-- 66 -->
    <g transform="translate(538.402204 541.928375)scale(0.1 -0.1)">
     <use xlink:href="#DejaVuSans-36"/>
     <use x="63.623047" xlink:href="#DejaVuSans-36"/>
    </g>
   </g>
   <g id="text_82">
    <!-- 67 -->
    <g transform="translate(538.402204 697.07989)scale(0.1 -0.1)">
     <use xlink:href="#DejaVuSans-36"/>
     <use x="63.623047" xlink:href="#DejaVuSans-37"/>
    </g>
   </g>
   <g id="text_83">
    <!-- 68 -->
    <g transform="translate(1208.374656 326.831956)scale(0.1 -0.1)">
     <use xlink:href="#DejaVuSans-36"/>
     <use x="63.623047" xlink:href="#DejaVuSans-38"/>
    </g>
   </g>
   <g id="text_84">
    <!-- 69 -->
    <g transform="translate(453.774105 302.14876)scale(0.1 -0.1)">
     <use xlink:href="#DejaVuSans-36"/>
     <use x="63.623047" xlink:href="#DejaVuSans-39"/>
    </g>
   </g>
   <g id="text_85">
    <!-- 70 -->
    <g transform="translate(478.4573 429.090909)scale(0.1 -0.1)">
     <use xlink:href="#DejaVuSans-37"/>
     <use x="63.623047" xlink:href="#DejaVuSans-30"/>
    </g>
   </g>
   <g id="text_86">
    <!-- 71 -->
    <g transform="translate(806.391185 1229.53168)scale(0.1 -0.1)">
     <use xlink:href="#DejaVuSans-37"/>
     <use x="63.623047" xlink:href="#DejaVuSans-31"/>
    </g>
   </g>
   <g id="text_87">
    <!-- 72 -->
    <g transform="translate(859.283747 690.027548)scale(0.1 -0.1)">
     <use xlink:href="#DejaVuSans-37"/>
     <use x="63.623047" xlink:href="#DejaVuSans-32"/>
    </g>
   </g>
   <g id="text_88">
    <!-- 73 -->
    <g transform="translate(806.391185 1081.432507)scale(0.1 -0.1)">
     <use xlink:href="#DejaVuSans-37"/>
     <use x="63.623047" xlink:href="#DejaVuSans-33"/>
    </g>
   </g>
   <g id="text_89">
    <!-- 74 -->
    <g transform="translate(288.044077 647.713499)scale(0.1 -0.1)">
     <use xlink:href="#DejaVuSans-37"/>
     <use x="63.623047" xlink:href="#DejaVuSans-34"/>
    </g>
   </g>
   <g id="text_90">
    <!-- 75 -->
    <g transform="translate(852.231405 1233.057851)scale(0.1 -0.1)">
     <use xlink:href="#DejaVuSans-37"/>
     <use x="63.623047" xlink:href="#DejaVuSans-35"/>
    </g>
   </g>
   <g id="text_91">
    <!-- 76 -->
    <g transform="translate(221.046832 1092.011019)scale(0.1 -0.1)">
     <use xlink:href="#DejaVuSans-37"/>
     <use x="63.623047" xlink:href="#DejaVuSans-36"/>
    </g>
   </g>
   <g id="text_92">
    <!-- 77 -->
    <g transform="translate(615.977961 919.22865)scale(0.1 -0.1)">
     <use xlink:href="#DejaVuSans-37"/>
     <use x="63.623047" xlink:href="#DejaVuSans-37"/>
    </g>
   </g>
   <g id="text_93">
    <!-- 78 -->
    <g transform="translate(1229.53168 1113.168044)scale(0.1 -0.1)">
     <use xlink:href="#DejaVuSans-37"/>
     <use x="63.623047" xlink:href="#DejaVuSans-38"/>
    </g>
   </g>
   <g id="text_94">
    <!-- 79 -->
    <g transform="translate(827.548209 524.297521)scale(0.1 -0.1)">
     <use xlink:href="#DejaVuSans-37"/>
     <use x="63.623047" xlink:href="#DejaVuSans-39"/>
    </g>
   </g>
   <g id="text_95">
    <!-- 80 -->
    <g transform="translate(1183.69146 591.294766)scale(0.1 -0.1)">
     <use xlink:href="#DejaVuSans-38"/>
     <use x="63.623047" xlink:href="#DejaVuSans-30"/>
    </g>
   </g>
   <g id="text_96">
    <!-- 81 -->
    <g transform="translate(259.834711 527.823691)scale(0.1 -0.1)">
     <use xlink:href="#DejaVuSans-38"/>
     <use x="63.623047" xlink:href="#DejaVuSans-31"/>
    </g>
   </g>
   <g id="text_97">
    <!-- 82 -->
    <g transform="translate(838.126722 1201.322314)scale(0.1 -0.1)">
     <use xlink:href="#DejaVuSans-38"/>
     <use x="63.623047" xlink:href="#DejaVuSans-32"/>
    </g>
   </g>
   <g id="text_98">
    <!-- 83 -->
    <g transform="translate(221.046832 1243.636364)scale(0.1 -0.1)">
     <use xlink:href="#DejaVuSans-38"/>
     <use x="63.623047" xlink:href="#DejaVuSans-33"/>
    </g>
   </g>
   <g id="text_99">
    <!-- 84 -->
    <g transform="translate(503.140496 460.826446)scale(0.1 -0.1)">
     <use xlink:href="#DejaVuSans-38"/>
     <use x="63.623047" xlink:href="#DejaVuSans-34"/>
    </g>
   </g>
   <g id="text_100">
    <!-- 85 -->
    <g transform="translate(545.454545 1148.429752)scale(0.1 -0.1)">
     <use xlink:href="#DejaVuSans-38"/>
     <use x="63.623047" xlink:href="#DejaVuSans-35"/>
    </g>
   </g>
   <g id="text_101">
    <!-- 86 -->
    <g transform="translate(552.506887 221.046832)scale(0.1 -0.1)">
     <use xlink:href="#DejaVuSans-38"/>
     <use x="63.623047" xlink:href="#DejaVuSans-36"/>
    </g>
   </g>
   <g id="text_102">
    <!-- 87 -->
    <g transform="translate(404.407713 1180.165289)scale(0.1 -0.1)">
     <use xlink:href="#DejaVuSans-38"/>
     <use x="63.623047" xlink:href="#DejaVuSans-37"/>
    </g>
   </g>
   <g id="text_103">
    <!-- 88 -->
    <g transform="translate(880.440771 510.192837)scale(0.1 -0.1)">
     <use xlink:href="#DejaVuSans-38"/>
     <use x="63.623047" xlink:href="#DejaVuSans-38"/>
    </g>
   </g>
   <g id="text_104">
    <!-- 89 -->
    <g transform="translate(1218.953168 619.504132)scale(0.1 -0.1)">
     <use xlink:href="#DejaVuSans-38"/>
     <use x="63.623047" xlink:href="#DejaVuSans-39"/>
    </g>
   </g>
   <g id="text_105">
    <!-- 90 -->
    <g transform="translate(898.071625 1243.636364)scale(0.1 -0.1)">
     <use xlink:href="#DejaVuSans-39"/>
     <use x="63.623047" xlink:href="#DejaVuSans-30"/>
    </g>
   </g>
   <g id="text_106">
    <!-- 91 -->
    <g transform="translate(474.931129 739.393939)scale(0.1 -0.1)">
     <use xlink:href="#DejaVuSans-39"/>
     <use x="63.623047" xlink:href="#DejaVuSans-31"/>
    </g>
   </g>
   <g id="text_107">
    <!-- 92 -->
    <g transform="translate(1208.374656 898.071625)scale(0.1 -0.1)">
     <use xlink:href="#DejaVuSans-39"/>
     <use x="63.623047" xlink:href="#DejaVuSans-32"/>
    </g>
   </g>
   <g id="text_108">
    <!-- 93 -->
    <g transform="translate(1173.112948 1056.749311)scale(0.1 -0.1)">
     <use xlink:href="#DejaVuSans-39"/>
     <use x="63.623047" xlink:href="#DejaVuSans-33"/>
    </g>
   </g>
   <g id="text_109">
    <!-- 94 -->
    <g transform="translate(778.181818 1134.325069)scale(0.1 -0.1)">
     <use xlink:href="#DejaVuSans-39"/>
     <use x="63.623047" xlink:href="#DejaVuSans-34"/>
    </g>
   </g>
   <g id="text_110">
    <!-- 95 -->
    <g transform="translate(718.236915 1240.110193)scale(0.1 -0.1)">
     <use xlink:href="#DejaVuSans-39"/>
     <use x="63.623047" xlink:href="#DejaVuSans-35"/>
    </g>
   </g>
   <g id="text_111">
    <!-- 96 -->
    <g transform="translate(1130.798898 1049.69697)scale(0.1 -0.1)">
     <use xlink:href="#DejaVuSans-39"/>
     <use x="63.623047" xlink:href="#DejaVuSans-36"/>
    </g>
   </g>
   <g id="text_112">
    <!-- 97 -->
    <g transform="translate(975.647383 305.674931)scale(0.1 -0.1)">
     <use xlink:href="#DejaVuSans-39"/>
     <use x="63.623047" xlink:href="#DejaVuSans-37"/>
    </g>
   </g>
   <g id="text_113">
    <!-- 98 -->
    <g transform="translate(605.399449 883.966942)scale(0.1 -0.1)">
     <use xlink:href="#DejaVuSans-39"/>
     <use x="63.623047" xlink:href="#DejaVuSans-38"/>
    </g>
   </g>
   <g id="text_114">
    <!-- 99 -->
    <g transform="translate(1092.011019 1190.743802)scale(0.1 -0.1)">
     <use xlink:href="#DejaVuSans-39"/>
     <use x="63.623047" xlink:href="#DejaVuSans-39"/>
    </g>
   </g>
  </g>
 </g>
 <defs>
  <clipPath id="pbc0c4f9f8e">
   <rect height="1152" width="1120.969697" x="159.515152" y="144"/>
  </clipPath>
 </defs>
</svg>
