<?xml version="1.0" encoding="utf-8" standalone="no"?>
<!DOCTYPE svg PUBLIC "-//W3C//DTD SVG 1.1//EN"
  "http://www.w3.org/Graphics/SVG/1.1/DTD/svg11.dtd">
<svg height="1440pt" version="1.1" viewBox="0 0 1440 1440" width="1440pt" xmlns="http://www.w3.org/2000/svg" xmlns:xlink="http://www.w3.org/1999/xlink">
 <metadata>
  <rdf:RDF xmlns:cc="http://creativecommons.org/ns#" xmlns:dc="http://purl.org/dc/elements/1.1/" xmlns:rdf="http://www.w3.org/1999/02/22-rdf-syntax-ns#">
   <cc:Work>
    <dc:type rdf:resource="http://purl.org/dc/dcmitype/StillImage"/>
    <dc:date>2022-01-07T23:40:41.414748</dc:date>
    <dc:format>image/svg+xml</dc:format>
    <dc:creator>
     <cc:Agent>
      <dc:title>Matplotlib v3.4.3, https://matplotlib.org/</dc:title>
     </cc:Agent>
    </dc:creator>
   </cc:Work>
  </rdf:RDF>
 </metadata>
 <defs>
  <style type="text/css">*{stroke-linecap:butt;stroke-linejoin:round;}</style>
 </defs>
 <g id="figure_1">
  <g id="patch_1">
   <path d="M 0 1440 
L 1440 1440 
L 1440 0 
L 0 0 
z
" style="fill:#ffffff;"/>
  </g>
  <g id="axes_1">
   <g id="patch_2">
    <path d="M 144 1296 
L 1296 1296 
L 1296 144 
L 144 144 
z
" style="fill:#ffffff;"/>
   </g>
   <g id="PathCollection_1">
    <defs>
     <path d="M 0 3 
C 0.795609 3 1.55874 2.683901 2.12132 2.12132 
C 2.683901 1.55874 3 0.795609 3 0 
C 3 -0.795609 2.683901 -1.55874 2.12132 -2.12132 
C 1.55874 -2.683901 0.795609 -3 0 -3 
C -0.795609 -3 -1.55874 -2.683901 -2.12132 -2.12132 
C -2.683901 -1.55874 -3 -0.795609 -3 0 
C -3 0.795609 -2.683901 1.55874 -2.12132 2.12132 
C -1.55874 2.683901 -0.795609 3 0 3 
z
" id="m6deda0531c" style="stroke:#1f77b4;"/>
    </defs>
    <g clip-path="url(#pb94096612d)">
     <use style="fill:#1f77b4;stroke:#1f77b4;" x="700.069204" xlink:href="#m6deda0531c" y="940.385675"/>
     <use style="fill:#1f77b4;stroke:#1f77b4;" x="758.049701" xlink:href="#m6deda0531c" y="852.231405"/>
     <use style="fill:#1f77b4;stroke:#1f77b4;" x="837.772885" xlink:href="#m6deda0531c" y="1074.380165"/>
     <use style="fill:#1f77b4;stroke:#1f77b4;" x="239.849009" xlink:href="#m6deda0531c" y="707.658402"/>
     <use style="fill:#1f77b4;stroke:#1f77b4;" x="1142.170494" xlink:href="#m6deda0531c" y="467.878788"/>
     <use style="fill:#1f77b4;stroke:#1f77b4;" x="1218.269896" xlink:href="#m6deda0531c" y="947.438017"/>
     <use style="fill:#1f77b4;stroke:#1f77b4;" x="674.702737" xlink:href="#m6deda0531c" y="739.393939"/>
     <use style="fill:#1f77b4;stroke:#1f77b4;" x="1192.903429" xlink:href="#m6deda0531c" y="912.176309"/>
     <use style="fill:#1f77b4;stroke:#1f77b4;" x="881.258257" xlink:href="#m6deda0531c" y="975.647383"/>
     <use style="fill:#1f77b4;stroke:#1f77b4;" x="841.396666" xlink:href="#m6deda0531c" y="919.22865"/>
     <use style="fill:#1f77b4;stroke:#1f77b4;" x="1236.388802" xlink:href="#m6deda0531c" y="1159.008264"/>
     <use style="fill:#1f77b4;stroke:#1f77b4;" x="830.525322" xlink:href="#m6deda0531c" y="196.363636"/>
     <use style="fill:#1f77b4;stroke:#1f77b4;" x="1095.06134" xlink:href="#m6deda0531c" y="407.933884"/>
     <use style="fill:#1f77b4;stroke:#1f77b4;" x="758.049701" xlink:href="#m6deda0531c" y="898.071625"/>
     <use style="fill:#1f77b4;stroke:#1f77b4;" x="725.435672" xlink:href="#m6deda0531c" y="887.493113"/>
     <use style="fill:#1f77b4;stroke:#1f77b4;" x="685.57408" xlink:href="#m6deda0531c" y="446.721763"/>
     <use style="fill:#1f77b4;stroke:#1f77b4;" x="355.810003" xlink:href="#m6deda0531c" y="1028.539945"/>
     <use style="fill:#1f77b4;stroke:#1f77b4;" x="663.831394" xlink:href="#m6deda0531c" y="749.972452"/>
     <use style="fill:#1f77b4;stroke:#1f77b4;" x="1240.012583" xlink:href="#m6deda0531c" y="1151.955923"/>
     <use style="fill:#1f77b4;stroke:#1f77b4;" x="406.542938" xlink:href="#m6deda0531c" y="1151.955923"/>
     <use style="fill:#1f77b4;stroke:#1f77b4;" x="667.455175" xlink:href="#m6deda0531c" y="848.705234"/>
     <use style="fill:#1f77b4;stroke:#1f77b4;" x="837.772885" xlink:href="#m6deda0531c" y="721.763085"/>
     <use style="fill:#1f77b4;stroke:#1f77b4;" x="1073.318654" xlink:href="#m6deda0531c" y="690.027548"/>
     <use style="fill:#1f77b4;stroke:#1f77b4;" x="924.74363" xlink:href="#m6deda0531c" y="580.716253"/>
     <use style="fill:#1f77b4;stroke:#1f77b4;" x="1062.44731" xlink:href="#m6deda0531c" y="940.385675"/>
     <use style="fill:#1f77b4;stroke:#1f77b4;" x="957.35766" xlink:href="#m6deda0531c" y="577.190083"/>
     <use style="fill:#1f77b4;stroke:#1f77b4;" x="522.503932" xlink:href="#m6deda0531c" y="453.774105"/>
     <use style="fill:#1f77b4;stroke:#1f77b4;" x="681.950299" xlink:href="#m6deda0531c" y="531.349862"/>
     <use style="fill:#1f77b4;stroke:#1f77b4;" x="1058.823529" xlink:href="#m6deda0531c" y="626.556474"/>
     <use style="fill:#1f77b4;stroke:#1f77b4;" x="1073.318654" xlink:href="#m6deda0531c" y="545.454545"/>
     <use style="fill:#1f77b4;stroke:#1f77b4;" x="500.761246" xlink:href="#m6deda0531c" y="940.385675"/>
     <use style="fill:#1f77b4;stroke:#1f77b4;" x="1134.922932" xlink:href="#m6deda0531c" y="760.550964"/>
     <use style="fill:#1f77b4;stroke:#1f77b4;" x="344.93866" xlink:href="#m6deda0531c" y="1197.796143"/>
     <use style="fill:#1f77b4;stroke:#1f77b4;" x="964.605222" xlink:href="#m6deda0531c" y="228.099174"/>
     <use style="fill:#1f77b4;stroke:#1f77b4;" x="511.632589" xlink:href="#m6deda0531c" y="439.669421"/>
     <use style="fill:#1f77b4;stroke:#1f77b4;" x="1087.813778" xlink:href="#m6deda0531c" y="1028.539945"/>
     <use style="fill:#1f77b4;stroke:#1f77b4;" x="547.870399" xlink:href="#m6deda0531c" y="1113.168044"/>
     <use style="fill:#1f77b4;stroke:#1f77b4;" x="210.858761" xlink:href="#m6deda0531c" y="612.451791"/>
     <use style="fill:#1f77b4;stroke:#1f77b4;" x="348.562441" xlink:href="#m6deda0531c" y="323.305785"/>
     <use style="fill:#1f77b4;stroke:#1f77b4;" x="692.821642" xlink:href="#m6deda0531c" y="1187.217631"/>
     <use style="fill:#1f77b4;stroke:#1f77b4;" x="450.028311" xlink:href="#m6deda0531c" y="912.176309"/>
     <use style="fill:#1f77b4;stroke:#1f77b4;" x="627.593583" xlink:href="#m6deda0531c" y="982.699725"/>
     <use style="fill:#1f77b4;stroke:#1f77b4;" x="196.363636" xlink:href="#m6deda0531c" y="464.352617"/>
     <use style="fill:#1f77b4;stroke:#1f77b4;" x="1087.813778" xlink:href="#m6deda0531c" y="400.881543"/>
     <use style="fill:#1f77b4;stroke:#1f77b4;" x="471.770997" xlink:href="#m6deda0531c" y="608.92562"/>
     <use style="fill:#1f77b4;stroke:#1f77b4;" x="895.753382" xlink:href="#m6deda0531c" y="838.126722"/>
     <use style="fill:#1f77b4;stroke:#1f77b4;" x="1182.032086" xlink:href="#m6deda0531c" y="213.99449"/>
     <use style="fill:#1f77b4;stroke:#1f77b4;" x="196.363636" xlink:href="#m6deda0531c" y="1201.322314"/>
     <use style="fill:#1f77b4;stroke:#1f77b4;" x="460.899654" xlink:href="#m6deda0531c" y="704.132231"/>
     <use style="fill:#1f77b4;stroke:#1f77b4;" x="584.10821" xlink:href="#m6deda0531c" y="707.658402"/>
     <use style="fill:#1f77b4;stroke:#1f77b4;" x="1066.071092" xlink:href="#m6deda0531c" y="933.333333"/>
     <use style="fill:#1f77b4;stroke:#1f77b4;" x="214.482542" xlink:href="#m6deda0531c" y="563.085399"/>
     <use style="fill:#1f77b4;stroke:#1f77b4;" x="384.800252" xlink:href="#m6deda0531c" y="369.146006"/>
     <use style="fill:#1f77b4;stroke:#1f77b4;" x="681.950299" xlink:href="#m6deda0531c" y="302.14876"/>
     <use style="fill:#1f77b4;stroke:#1f77b4;" x="435.533187" xlink:href="#m6deda0531c" y="887.493113"/>
     <use style="fill:#1f77b4;stroke:#1f77b4;" x="997.219251" xlink:href="#m6deda0531c" y="894.545455"/>
     <use style="fill:#1f77b4;stroke:#1f77b4;" x="707.316766" xlink:href="#m6deda0531c" y="1236.584022"/>
     <use style="fill:#1f77b4;stroke:#1f77b4;" x="323.195974" xlink:href="#m6deda0531c" y="291.570248"/>
     <use style="fill:#1f77b4;stroke:#1f77b4;" x="348.562441" xlink:href="#m6deda0531c" y="1123.746556"/>
     <use style="fill:#1f77b4;stroke:#1f77b4;" x="707.316766" xlink:href="#m6deda0531c" y="764.077135"/>
     <use style="fill:#1f77b4;stroke:#1f77b4;" x="257.967914" xlink:href="#m6deda0531c" y="887.493113"/>
     <use style="fill:#1f77b4;stroke:#1f77b4;" x="794.287512" xlink:href="#m6deda0531c" y="429.090909"/>
     <use style="fill:#1f77b4;stroke:#1f77b4;" x="968.229003" xlink:href="#m6deda0531c" y="340.936639"/>
     <use style="fill:#1f77b4;stroke:#1f77b4;" x="1008.090595" xlink:href="#m6deda0531c" y="1099.063361"/>
     <use style="fill:#1f77b4;stroke:#1f77b4;" x="761.673482" xlink:href="#m6deda0531c" y="1141.37741"/>
     <use style="fill:#1f77b4;stroke:#1f77b4;" x="508.008808" xlink:href="#m6deda0531c" y="862.809917"/>
     <use style="fill:#1f77b4;stroke:#1f77b4;" x="533.375275" xlink:href="#m6deda0531c" y="541.928375"/>
     <use style="fill:#1f77b4;stroke:#1f77b4;" x="533.375275" xlink:href="#m6deda0531c" y="697.07989"/>
     <use style="fill:#1f77b4;stroke:#1f77b4;" x="1221.893677" xlink:href="#m6deda0531c" y="326.831956"/>
     <use style="fill:#1f77b4;stroke:#1f77b4;" x="446.40453" xlink:href="#m6deda0531c" y="302.14876"/>
     <use style="fill:#1f77b4;stroke:#1f77b4;" x="471.770997" xlink:href="#m6deda0531c" y="429.090909"/>
     <use style="fill:#1f77b4;stroke:#1f77b4;" x="808.782636" xlink:href="#m6deda0531c" y="1229.53168"/>
     <use style="fill:#1f77b4;stroke:#1f77b4;" x="863.139352" xlink:href="#m6deda0531c" y="690.027548"/>
     <use style="fill:#1f77b4;stroke:#1f77b4;" x="808.782636" xlink:href="#m6deda0531c" y="1081.432507"/>
     <use style="fill:#1f77b4;stroke:#1f77b4;" x="276.08682" xlink:href="#m6deda0531c" y="647.713499"/>
     <use style="fill:#1f77b4;stroke:#1f77b4;" x="855.89179" xlink:href="#m6deda0531c" y="1233.057851"/>
     <use style="fill:#1f77b4;stroke:#1f77b4;" x="207.23498" xlink:href="#m6deda0531c" y="1092.011019"/>
     <use style="fill:#1f77b4;stroke:#1f77b4;" x="613.098459" xlink:href="#m6deda0531c" y="919.22865"/>
     <use style="fill:#1f77b4;stroke:#1f77b4;" x="1243.636364" xlink:href="#m6deda0531c" y="1113.168044"/>
     <use style="fill:#1f77b4;stroke:#1f77b4;" x="830.525322" xlink:href="#m6deda0531c" y="524.297521"/>
     <use style="fill:#1f77b4;stroke:#1f77b4;" x="1196.52721" xlink:href="#m6deda0531c" y="591.294766"/>
     <use style="fill:#1f77b4;stroke:#1f77b4;" x="247.096571" xlink:href="#m6deda0531c" y="527.823691"/>
     <use style="fill:#1f77b4;stroke:#1f77b4;" x="841.396666" xlink:href="#m6deda0531c" y="1201.322314"/>
     <use style="fill:#1f77b4;stroke:#1f77b4;" x="207.23498" xlink:href="#m6deda0531c" y="1243.636364"/>
     <use style="fill:#1f77b4;stroke:#1f77b4;" x="497.137465" xlink:href="#m6deda0531c" y="460.826446"/>
     <use style="fill:#1f77b4;stroke:#1f77b4;" x="540.622837" xlink:href="#m6deda0531c" y="1148.429752"/>
     <use style="fill:#1f77b4;stroke:#1f77b4;" x="547.870399" xlink:href="#m6deda0531c" y="221.046832"/>
     <use style="fill:#1f77b4;stroke:#1f77b4;" x="395.671595" xlink:href="#m6deda0531c" y="1180.165289"/>
     <use style="fill:#1f77b4;stroke:#1f77b4;" x="884.882038" xlink:href="#m6deda0531c" y="510.192837"/>
     <use style="fill:#1f77b4;stroke:#1f77b4;" x="1232.76502" xlink:href="#m6deda0531c" y="619.504132"/>
     <use style="fill:#1f77b4;stroke:#1f77b4;" x="903.000944" xlink:href="#m6deda0531c" y="1243.636364"/>
     <use style="fill:#1f77b4;stroke:#1f77b4;" x="468.147216" xlink:href="#m6deda0531c" y="739.393939"/>
     <use style="fill:#1f77b4;stroke:#1f77b4;" x="1221.893677" xlink:href="#m6deda0531c" y="898.071625"/>
     <use style="fill:#1f77b4;stroke:#1f77b4;" x="1185.655867" xlink:href="#m6deda0531c" y="1056.749311"/>
     <use style="fill:#1f77b4;stroke:#1f77b4;" x="779.792388" xlink:href="#m6deda0531c" y="1134.325069"/>
     <use style="fill:#1f77b4;stroke:#1f77b4;" x="718.188109" xlink:href="#m6deda0531c" y="1240.110193"/>
     <use style="fill:#1f77b4;stroke:#1f77b4;" x="1142.170494" xlink:href="#m6deda0531c" y="1049.69697"/>
     <use style="fill:#1f77b4;stroke:#1f77b4;" x="982.724127" xlink:href="#m6deda0531c" y="305.674931"/>
     <use style="fill:#1f77b4;stroke:#1f77b4;" x="602.227115" xlink:href="#m6deda0531c" y="883.966942"/>
     <use style="fill:#1f77b4;stroke:#1f77b4;" x="1102.308902" xlink:href="#m6deda0531c" y="1190.743802"/>
    </g>
   </g>
   <g id="matplotlib.axis_1">
    <g id="xtick_1">
     <g id="line2d_1">
      <defs>
       <path d="M 0 0 
L 0 3.5 
" id="m99d2eeed6d" style="stroke:#000000;stroke-width:0.8;"/>
      </defs>
      <g>
       <use style="stroke:#000000;stroke-width:0.8;" x="174.62095" xlink:href="#m99d2eeed6d" y="1296"/>
      </g>
     </g>
     <g id="text_1">
      <!-- 0 -->
      <g transform="translate(171.4397 1310.598438)scale(0.1 -0.1)">
       <defs>
        <path d="M 2034 4250 
Q 1547 4250 1301 3770 
Q 1056 3291 1056 2328 
Q 1056 1369 1301 889 
Q 1547 409 2034 409 
Q 2525 409 2770 889 
Q 3016 1369 3016 2328 
Q 3016 3291 2770 3770 
Q 2525 4250 2034 4250 
z
M 2034 4750 
Q 2819 4750 3233 4129 
Q 3647 3509 3647 2328 
Q 3647 1150 3233 529 
Q 2819 -91 2034 -91 
Q 1250 -91 836 529 
Q 422 1150 422 2328 
Q 422 3509 836 4129 
Q 1250 4750 2034 4750 
z
" id="DejaVuSans-30" transform="scale(0.015625)"/>
       </defs>
       <use xlink:href="#DejaVuSans-30"/>
      </g>
     </g>
    </g>
    <g id="xtick_2">
     <g id="line2d_2">
      <g>
       <use style="stroke:#000000;stroke-width:0.8;" x="355.810003" xlink:href="#m99d2eeed6d" y="1296"/>
      </g>
     </g>
     <g id="text_2">
      <!-- 50 -->
      <g transform="translate(349.447503 1310.598438)scale(0.1 -0.1)">
       <defs>
        <path d="M 691 4666 
L 3169 4666 
L 3169 4134 
L 1269 4134 
L 1269 2991 
Q 1406 3038 1543 3061 
Q 1681 3084 1819 3084 
Q 2600 3084 3056 2656 
Q 3513 2228 3513 1497 
Q 3513 744 3044 326 
Q 2575 -91 1722 -91 
Q 1428 -91 1123 -41 
Q 819 9 494 109 
L 494 744 
Q 775 591 1075 516 
Q 1375 441 1709 441 
Q 2250 441 2565 725 
Q 2881 1009 2881 1497 
Q 2881 1984 2565 2268 
Q 2250 2553 1709 2553 
Q 1456 2553 1204 2497 
Q 953 2441 691 2322 
L 691 4666 
z
" id="DejaVuSans-35" transform="scale(0.015625)"/>
       </defs>
       <use xlink:href="#DejaVuSans-35"/>
       <use x="63.623047" xlink:href="#DejaVuSans-30"/>
      </g>
     </g>
    </g>
    <g id="xtick_3">
     <g id="line2d_3">
      <g>
       <use style="stroke:#000000;stroke-width:0.8;" x="536.999056" xlink:href="#m99d2eeed6d" y="1296"/>
      </g>
     </g>
     <g id="text_3">
      <!-- 100 -->
      <g transform="translate(527.455306 1310.598438)scale(0.1 -0.1)">
       <defs>
        <path d="M 794 531 
L 1825 531 
L 1825 4091 
L 703 3866 
L 703 4441 
L 1819 4666 
L 2450 4666 
L 2450 531 
L 3481 531 
L 3481 0 
L 794 0 
L 794 531 
z
" id="DejaVuSans-31" transform="scale(0.015625)"/>
       </defs>
       <use xlink:href="#DejaVuSans-31"/>
       <use x="63.623047" xlink:href="#DejaVuSans-30"/>
       <use x="127.246094" xlink:href="#DejaVuSans-30"/>
      </g>
     </g>
    </g>
    <g id="xtick_4">
     <g id="line2d_4">
      <g>
       <use style="stroke:#000000;stroke-width:0.8;" x="718.188109" xlink:href="#m99d2eeed6d" y="1296"/>
      </g>
     </g>
     <g id="text_4">
      <!-- 150 -->
      <g transform="translate(708.644359 1310.598438)scale(0.1 -0.1)">
       <use xlink:href="#DejaVuSans-31"/>
       <use x="63.623047" xlink:href="#DejaVuSans-35"/>
       <use x="127.246094" xlink:href="#DejaVuSans-30"/>
      </g>
     </g>
    </g>
    <g id="xtick_5">
     <g id="line2d_5">
      <g>
       <use style="stroke:#000000;stroke-width:0.8;" x="899.377163" xlink:href="#m99d2eeed6d" y="1296"/>
      </g>
     </g>
     <g id="text_5">
      <!-- 200 -->
      <g transform="translate(889.833413 1310.598438)scale(0.1 -0.1)">
       <defs>
        <path d="M 1228 531 
L 3431 531 
L 3431 0 
L 469 0 
L 469 531 
Q 828 903 1448 1529 
Q 2069 2156 2228 2338 
Q 2531 2678 2651 2914 
Q 2772 3150 2772 3378 
Q 2772 3750 2511 3984 
Q 2250 4219 1831 4219 
Q 1534 4219 1204 4116 
Q 875 4013 500 3803 
L 500 4441 
Q 881 4594 1212 4672 
Q 1544 4750 1819 4750 
Q 2544 4750 2975 4387 
Q 3406 4025 3406 3419 
Q 3406 3131 3298 2873 
Q 3191 2616 2906 2266 
Q 2828 2175 2409 1742 
Q 1991 1309 1228 531 
z
" id="DejaVuSans-32" transform="scale(0.015625)"/>
       </defs>
       <use xlink:href="#DejaVuSans-32"/>
       <use x="63.623047" xlink:href="#DejaVuSans-30"/>
       <use x="127.246094" xlink:href="#DejaVuSans-30"/>
      </g>
     </g>
    </g>
    <g id="xtick_6">
     <g id="line2d_6">
      <g>
       <use style="stroke:#000000;stroke-width:0.8;" x="1080.566216" xlink:href="#m99d2eeed6d" y="1296"/>
      </g>
     </g>
     <g id="text_6">
      <!-- 250 -->
      <g transform="translate(1071.022466 1310.598438)scale(0.1 -0.1)">
       <use xlink:href="#DejaVuSans-32"/>
       <use x="63.623047" xlink:href="#DejaVuSans-35"/>
       <use x="127.246094" xlink:href="#DejaVuSans-30"/>
      </g>
     </g>
    </g>
    <g id="xtick_7">
     <g id="line2d_7">
      <g>
       <use style="stroke:#000000;stroke-width:0.8;" x="1261.755269" xlink:href="#m99d2eeed6d" y="1296"/>
      </g>
     </g>
     <g id="text_7">
      <!-- 300 -->
      <g transform="translate(1252.211519 1310.598438)scale(0.1 -0.1)">
       <defs>
        <path d="M 2597 2516 
Q 3050 2419 3304 2112 
Q 3559 1806 3559 1356 
Q 3559 666 3084 287 
Q 2609 -91 1734 -91 
Q 1441 -91 1130 -33 
Q 819 25 488 141 
L 488 750 
Q 750 597 1062 519 
Q 1375 441 1716 441 
Q 2309 441 2620 675 
Q 2931 909 2931 1356 
Q 2931 1769 2642 2001 
Q 2353 2234 1838 2234 
L 1294 2234 
L 1294 2753 
L 1863 2753 
Q 2328 2753 2575 2939 
Q 2822 3125 2822 3475 
Q 2822 3834 2567 4026 
Q 2313 4219 1838 4219 
Q 1578 4219 1281 4162 
Q 984 4106 628 3988 
L 628 4550 
Q 988 4650 1302 4700 
Q 1616 4750 1894 4750 
Q 2613 4750 3031 4423 
Q 3450 4097 3450 3541 
Q 3450 3153 3228 2886 
Q 3006 2619 2597 2516 
z
" id="DejaVuSans-33" transform="scale(0.015625)"/>
       </defs>
       <use xlink:href="#DejaVuSans-33"/>
       <use x="63.623047" xlink:href="#DejaVuSans-30"/>
       <use x="127.246094" xlink:href="#DejaVuSans-30"/>
      </g>
     </g>
    </g>
   </g>
   <g id="matplotlib.axis_2">
    <g id="ytick_1">
     <g id="line2d_8">
      <defs>
       <path d="M 0 0 
L -3.5 0 
" id="m1de2f7602f" style="stroke:#000000;stroke-width:0.8;"/>
      </defs>
      <g>
       <use style="stroke:#000000;stroke-width:0.8;" x="144" xlink:href="#m1de2f7602f" y="1254.214876"/>
      </g>
     </g>
     <g id="text_8">
      <!-- 0 -->
      <g transform="translate(130.6375 1258.014095)scale(0.1 -0.1)">
       <use xlink:href="#DejaVuSans-30"/>
      </g>
     </g>
    </g>
    <g id="ytick_2">
     <g id="line2d_9">
      <g>
       <use style="stroke:#000000;stroke-width:0.8;" x="144" xlink:href="#m1de2f7602f" y="1077.906336"/>
      </g>
     </g>
     <g id="text_9">
      <!-- 50 -->
      <g transform="translate(124.275 1081.705555)scale(0.1 -0.1)">
       <use xlink:href="#DejaVuSans-35"/>
       <use x="63.623047" xlink:href="#DejaVuSans-30"/>
      </g>
     </g>
    </g>
    <g id="ytick_3">
     <g id="line2d_10">
      <g>
       <use style="stroke:#000000;stroke-width:0.8;" x="144" xlink:href="#m1de2f7602f" y="901.597796"/>
      </g>
     </g>
     <g id="text_10">
      <!-- 100 -->
      <g transform="translate(117.9125 905.397015)scale(0.1 -0.1)">
       <use xlink:href="#DejaVuSans-31"/>
       <use x="63.623047" xlink:href="#DejaVuSans-30"/>
       <use x="127.246094" xlink:href="#DejaVuSans-30"/>
      </g>
     </g>
    </g>
    <g id="ytick_4">
     <g id="line2d_11">
      <g>
       <use style="stroke:#000000;stroke-width:0.8;" x="144" xlink:href="#m1de2f7602f" y="725.289256"/>
      </g>
     </g>
     <g id="text_11">
      <!-- 150 -->
      <g transform="translate(117.9125 729.088475)scale(0.1 -0.1)">
       <use xlink:href="#DejaVuSans-31"/>
       <use x="63.623047" xlink:href="#DejaVuSans-35"/>
       <use x="127.246094" xlink:href="#DejaVuSans-30"/>
      </g>
     </g>
    </g>
    <g id="ytick_5">
     <g id="line2d_12">
      <g>
       <use style="stroke:#000000;stroke-width:0.8;" x="144" xlink:href="#m1de2f7602f" y="548.980716"/>
      </g>
     </g>
     <g id="text_12">
      <!-- 200 -->
      <g transform="translate(117.9125 552.779935)scale(0.1 -0.1)">
       <use xlink:href="#DejaVuSans-32"/>
       <use x="63.623047" xlink:href="#DejaVuSans-30"/>
       <use x="127.246094" xlink:href="#DejaVuSans-30"/>
      </g>
     </g>
    </g>
    <g id="ytick_6">
     <g id="line2d_13">
      <g>
       <use style="stroke:#000000;stroke-width:0.8;" x="144" xlink:href="#m1de2f7602f" y="372.672176"/>
      </g>
     </g>
     <g id="text_13">
      <!-- 250 -->
      <g transform="translate(117.9125 376.471395)scale(0.1 -0.1)">
       <use xlink:href="#DejaVuSans-32"/>
       <use x="63.623047" xlink:href="#DejaVuSans-35"/>
       <use x="127.246094" xlink:href="#DejaVuSans-30"/>
      </g>
     </g>
    </g>
    <g id="ytick_7">
     <g id="line2d_14">
      <g>
       <use style="stroke:#000000;stroke-width:0.8;" x="144" xlink:href="#m1de2f7602f" y="196.363636"/>
      </g>
     </g>
     <g id="text_14">
      <!-- 300 -->
      <g transform="translate(117.9125 200.162855)scale(0.1 -0.1)">
       <use xlink:href="#DejaVuSans-33"/>
       <use x="63.623047" xlink:href="#DejaVuSans-30"/>
       <use x="127.246094" xlink:href="#DejaVuSans-30"/>
      </g>
     </g>
    </g>
   </g>
   <g id="line2d_15">
    <path clip-path="url(#pb94096612d)" d="M 207.23498 1243.636364 
L 395.671595 1180.165289 
L 207.23498 1092.011019 
L 450.028311 912.176309 
L 257.967914 887.493113 
L 435.533187 887.493113 
L 540.622837 1148.429752 
L 602.227115 883.966942 
L 613.098459 919.22865 
L 982.724127 305.674931 
L 1221.893677 898.071625 
L 1142.170494 1049.69697 
L 1102.308902 1190.743802 
L 1185.655867 1056.749311 
L 841.396666 1201.322314 
L 718.188109 1240.110193 
L 779.792388 1134.325069 
L 508.008808 862.809917 
L 884.882038 510.192837 
L 460.899654 704.132231 
L 468.147216 739.393939 
L 247.096571 527.823691 
L 276.08682 647.713499 
L 533.375275 697.07989 
L 497.137465 460.826446 
L 446.40453 302.14876 
L 471.770997 429.090909 
L 1196.52721 591.294766 
L 830.525322 524.297521 
L 533.375275 541.928375 
L 863.139352 690.027548 
L 855.89179 1233.057851 
L 707.316766 764.077135 
L 808.782636 1081.432507 
L 761.673482 1141.37741 
L 808.782636 1229.53168 
L 1008.090595 1099.063361 
L 584.10821 707.658402 
L 214.482542 563.085399 
L 384.800252 369.146006 
L 681.950299 302.14876 
L 968.229003 340.936639 
L 794.287512 429.090909 
L 471.770997 608.92562 
L 627.593583 982.699725 
L 348.562441 1123.746556 
L 344.93866 1197.796143 
L 707.316766 1236.584022 
L 903.000944 1243.636364 
L 997.219251 894.545455 
L 881.258257 975.647383 
L 895.753382 838.126722 
L 1087.813778 1028.539945 
L 1066.071092 933.333333 
L 1062.44731 940.385675 
L 1073.318654 545.454545 
L 348.562441 323.305785 
L 964.605222 228.099174 
L 1087.813778 400.881543 
L 1134.922932 760.550964 
L 1058.823529 626.556474 
L 841.396666 919.22865 
L 692.821642 1187.217631 
L 837.772885 1074.380165 
L 547.870399 1113.168044 
L 210.858761 612.451791 
L 500.761246 940.385675 
L 511.632589 439.669421 
L 674.702737 739.393939 
L 522.503932 453.774105 
L 681.950299 531.349862 
L 685.57408 446.721763 
L 758.049701 898.071625 
L 725.435672 887.493113 
L 667.455175 848.705234 
L 663.831394 749.972452 
L 957.35766 577.190083 
L 837.772885 721.763085 
L 924.74363 580.716253 
L 1073.318654 690.027548 
L 758.049701 852.231405 
L 239.849009 707.658402 
L 355.810003 1028.539945 
L 406.542938 1151.955923 
L 700.069204 940.385675 
L 1236.388802 1159.008264 
L 1240.012583 1151.955923 
L 1218.269896 947.438017 
L 1095.06134 407.933884 
L 1192.903429 912.176309 
L 1243.636364 1113.168044 
L 1232.76502 619.504132 
L 1142.170494 467.878788 
L 1221.893677 326.831956 
L 1182.032086 213.99449 
L 830.525322 196.363636 
L 547.870399 221.046832 
L 323.195974 291.570248 
L 196.363636 464.352617 
L 196.363636 1201.322314 
L 207.23498 1243.636364 
" style="fill:none;stroke:#1f77b4;stroke-linecap:square;stroke-width:1.5;"/>
   </g>
   <g id="patch_3">
    <path d="M 144 1296 
L 144 144 
" style="fill:none;stroke:#000000;stroke-linecap:square;stroke-linejoin:miter;stroke-width:0.8;"/>
   </g>
   <g id="patch_4">
    <path d="M 1296 1296 
L 1296 144 
" style="fill:none;stroke:#000000;stroke-linecap:square;stroke-linejoin:miter;stroke-width:0.8;"/>
   </g>
   <g id="patch_5">
    <path d="M 144 1296 
L 1296 1296 
" style="fill:none;stroke:#000000;stroke-linecap:square;stroke-linejoin:miter;stroke-width:0.8;"/>
   </g>
   <g id="patch_6">
    <path d="M 144 144 
L 1296 144 
" style="fill:none;stroke:#000000;stroke-linecap:square;stroke-linejoin:miter;stroke-width:0.8;"/>
   </g>
   <g id="text_15">
    <!-- 0 -->
    <g transform="translate(700.069204 940.385675)scale(0.1 -0.1)">
     <use xlink:href="#DejaVuSans-30"/>
    </g>
   </g>
   <g id="text_16">
    <!-- 1 -->
    <g transform="translate(758.049701 852.231405)scale(0.1 -0.1)">
     <use xlink:href="#DejaVuSans-31"/>
    </g>
   </g>
   <g id="text_17">
    <!-- 2 -->
    <g transform="translate(837.772885 1074.380165)scale(0.1 -0.1)">
     <use xlink:href="#DejaVuSans-32"/>
    </g>
   </g>
   <g id="text_18">
    <!-- 3 -->
    <g transform="translate(239.849009 707.658402)scale(0.1 -0.1)">
     <use xlink:href="#DejaVuSans-33"/>
    </g>
   </g>
   <g id="text_19">
    <!-- 4 -->
    <g transform="translate(1142.170494 467.878788)scale(0.1 -0.1)">
     <defs>
      <path d="M 2419 4116 
L 825 1625 
L 2419 1625 
L 2419 4116 
z
M 2253 4666 
L 3047 4666 
L 3047 1625 
L 3713 1625 
L 3713 1100 
L 3047 1100 
L 3047 0 
L 2419 0 
L 2419 1100 
L 313 1100 
L 313 1709 
L 2253 4666 
z
" id="DejaVuSans-34" transform="scale(0.015625)"/>
     </defs>
     <use xlink:href="#DejaVuSans-34"/>
    </g>
   </g>
   <g id="text_20">
    <!-- 5 -->
    <g transform="translate(1218.269896 947.438017)scale(0.1 -0.1)">
     <use xlink:href="#DejaVuSans-35"/>
    </g>
   </g>
   <g id="text_21">
    <!-- 6 -->
    <g transform="translate(674.702737 739.393939)scale(0.1 -0.1)">
     <defs>
      <path d="M 2113 2584 
Q 1688 2584 1439 2293 
Q 1191 2003 1191 1497 
Q 1191 994 1439 701 
Q 1688 409 2113 409 
Q 2538 409 2786 701 
Q 3034 994 3034 1497 
Q 3034 2003 2786 2293 
Q 2538 2584 2113 2584 
z
M 3366 4563 
L 3366 3988 
Q 3128 4100 2886 4159 
Q 2644 4219 2406 4219 
Q 1781 4219 1451 3797 
Q 1122 3375 1075 2522 
Q 1259 2794 1537 2939 
Q 1816 3084 2150 3084 
Q 2853 3084 3261 2657 
Q 3669 2231 3669 1497 
Q 3669 778 3244 343 
Q 2819 -91 2113 -91 
Q 1303 -91 875 529 
Q 447 1150 447 2328 
Q 447 3434 972 4092 
Q 1497 4750 2381 4750 
Q 2619 4750 2861 4703 
Q 3103 4656 3366 4563 
z
" id="DejaVuSans-36" transform="scale(0.015625)"/>
     </defs>
     <use xlink:href="#DejaVuSans-36"/>
    </g>
   </g>
   <g id="text_22">
    <!-- 7 -->
    <g transform="translate(1192.903429 912.176309)scale(0.1 -0.1)">
     <defs>
      <path d="M 525 4666 
L 3525 4666 
L 3525 4397 
L 1831 0 
L 1172 0 
L 2766 4134 
L 525 4134 
L 525 4666 
z
" id="DejaVuSans-37" transform="scale(0.015625)"/>
     </defs>
     <use xlink:href="#DejaVuSans-37"/>
    </g>
   </g>
   <g id="text_23">
    <!-- 8 -->
    <g transform="translate(881.258257 975.647383)scale(0.1 -0.1)">
     <defs>
      <path d="M 2034 2216 
Q 1584 2216 1326 1975 
Q 1069 1734 1069 1313 
Q 1069 891 1326 650 
Q 1584 409 2034 409 
Q 2484 409 2743 651 
Q 3003 894 3003 1313 
Q 3003 1734 2745 1975 
Q 2488 2216 2034 2216 
z
M 1403 2484 
Q 997 2584 770 2862 
Q 544 3141 544 3541 
Q 544 4100 942 4425 
Q 1341 4750 2034 4750 
Q 2731 4750 3128 4425 
Q 3525 4100 3525 3541 
Q 3525 3141 3298 2862 
Q 3072 2584 2669 2484 
Q 3125 2378 3379 2068 
Q 3634 1759 3634 1313 
Q 3634 634 3220 271 
Q 2806 -91 2034 -91 
Q 1263 -91 848 271 
Q 434 634 434 1313 
Q 434 1759 690 2068 
Q 947 2378 1403 2484 
z
M 1172 3481 
Q 1172 3119 1398 2916 
Q 1625 2713 2034 2713 
Q 2441 2713 2670 2916 
Q 2900 3119 2900 3481 
Q 2900 3844 2670 4047 
Q 2441 4250 2034 4250 
Q 1625 4250 1398 4047 
Q 1172 3844 1172 3481 
z
" id="DejaVuSans-38" transform="scale(0.015625)"/>
     </defs>
     <use xlink:href="#DejaVuSans-38"/>
    </g>
   </g>
   <g id="text_24">
    <!-- 9 -->
    <g transform="translate(841.396666 919.22865)scale(0.1 -0.1)">
     <defs>
      <path d="M 703 97 
L 703 672 
Q 941 559 1184 500 
Q 1428 441 1663 441 
Q 2288 441 2617 861 
Q 2947 1281 2994 2138 
Q 2813 1869 2534 1725 
Q 2256 1581 1919 1581 
Q 1219 1581 811 2004 
Q 403 2428 403 3163 
Q 403 3881 828 4315 
Q 1253 4750 1959 4750 
Q 2769 4750 3195 4129 
Q 3622 3509 3622 2328 
Q 3622 1225 3098 567 
Q 2575 -91 1691 -91 
Q 1453 -91 1209 -44 
Q 966 3 703 97 
z
M 1959 2075 
Q 2384 2075 2632 2365 
Q 2881 2656 2881 3163 
Q 2881 3666 2632 3958 
Q 2384 4250 1959 4250 
Q 1534 4250 1286 3958 
Q 1038 3666 1038 3163 
Q 1038 2656 1286 2365 
Q 1534 2075 1959 2075 
z
" id="DejaVuSans-39" transform="scale(0.015625)"/>
     </defs>
     <use xlink:href="#DejaVuSans-39"/>
    </g>
   </g>
   <g id="text_25">
    <!-- 10 -->
    <g transform="translate(1236.388802 1159.008264)scale(0.1 -0.1)">
     <use xlink:href="#DejaVuSans-31"/>
     <use x="63.623047" xlink:href="#DejaVuSans-30"/>
    </g>
   </g>
   <g id="text_26">
    <!-- 11 -->
    <g transform="translate(830.525322 196.363636)scale(0.1 -0.1)">
     <use xlink:href="#DejaVuSans-31"/>
     <use x="63.623047" xlink:href="#DejaVuSans-31"/>
    </g>
   </g>
   <g id="text_27">
    <!-- 12 -->
    <g transform="translate(1095.06134 407.933884)scale(0.1 -0.1)">
     <use xlink:href="#DejaVuSans-31"/>
     <use x="63.623047" xlink:href="#DejaVuSans-32"/>
    </g>
   </g>
   <g id="text_28">
    <!-- 13 -->
    <g transform="translate(758.049701 898.071625)scale(0.1 -0.1)">
     <use xlink:href="#DejaVuSans-31"/>
     <use x="63.623047" xlink:href="#DejaVuSans-33"/>
    </g>
   </g>
   <g id="text_29">
    <!-- 14 -->
    <g transform="translate(725.435672 887.493113)scale(0.1 -0.1)">
     <use xlink:href="#DejaVuSans-31"/>
     <use x="63.623047" xlink:href="#DejaVuSans-34"/>
    </g>
   </g>
   <g id="text_30">
    <!-- 15 -->
    <g transform="translate(685.57408 446.721763)scale(0.1 -0.1)">
     <use xlink:href="#DejaVuSans-31"/>
     <use x="63.623047" xlink:href="#DejaVuSans-35"/>
    </g>
   </g>
   <g id="text_31">
    <!-- 16 -->
    <g transform="translate(355.810003 1028.539945)scale(0.1 -0.1)">
     <use xlink:href="#DejaVuSans-31"/>
     <use x="63.623047" xlink:href="#DejaVuSans-36"/>
    </g>
   </g>
   <g id="text_32">
    <!-- 17 -->
    <g transform="translate(663.831394 749.972452)scale(0.1 -0.1)">
     <use xlink:href="#DejaVuSans-31"/>
     <use x="63.623047" xlink:href="#DejaVuSans-37"/>
    </g>
   </g>
   <g id="text_33">
    <!-- 18 -->
    <g transform="translate(1240.012583 1151.955923)scale(0.1 -0.1)">
     <use xlink:href="#DejaVuSans-31"/>
     <use x="63.623047" xlink:href="#DejaVuSans-38"/>
    </g>
   </g>
   <g id="text_34">
    <!-- 19 -->
    <g transform="translate(406.542938 1151.955923)scale(0.1 -0.1)">
     <use xlink:href="#DejaVuSans-31"/>
     <use x="63.623047" xlink:href="#DejaVuSans-39"/>
    </g>
   </g>
   <g id="text_35">
    <!-- 20 -->
    <g transform="translate(667.455175 848.705234)scale(0.1 -0.1)">
     <use xlink:href="#DejaVuSans-32"/>
     <use x="63.623047" xlink:href="#DejaVuSans-30"/>
    </g>
   </g>
   <g id="text_36">
    <!-- 21 -->
    <g transform="translate(837.772885 721.763085)scale(0.1 -0.1)">
     <use xlink:href="#DejaVuSans-32"/>
     <use x="63.623047" xlink:href="#DejaVuSans-31"/>
    </g>
   </g>
   <g id="text_37">
    <!-- 22 -->
    <g transform="translate(1073.318654 690.027548)scale(0.1 -0.1)">
     <use xlink:href="#DejaVuSans-32"/>
     <use x="63.623047" xlink:href="#DejaVuSans-32"/>
    </g>
   </g>
   <g id="text_38">
    <!-- 23 -->
    <g transform="translate(924.74363 580.716253)scale(0.1 -0.1)">
     <use xlink:href="#DejaVuSans-32"/>
     <use x="63.623047" xlink:href="#DejaVuSans-33"/>
    </g>
   </g>
   <g id="text_39">
    <!-- 24 -->
    <g transform="translate(1062.44731 940.385675)scale(0.1 -0.1)">
     <use xlink:href="#DejaVuSans-32"/>
     <use x="63.623047" xlink:href="#DejaVuSans-34"/>
    </g>
   </g>
   <g id="text_40">
    <!-- 25 -->
    <g transform="translate(957.35766 577.190083)scale(0.1 -0.1)">
     <use xlink:href="#DejaVuSans-32"/>
     <use x="63.623047" xlink:href="#DejaVuSans-35"/>
    </g>
   </g>
   <g id="text_41">
    <!-- 26 -->
    <g transform="translate(522.503932 453.774105)scale(0.1 -0.1)">
     <use xlink:href="#DejaVuSans-32"/>
     <use x="63.623047" xlink:href="#DejaVuSans-36"/>
    </g>
   </g>
   <g id="text_42">
    <!-- 27 -->
    <g transform="translate(681.950299 531.349862)scale(0.1 -0.1)">
     <use xlink:href="#DejaVuSans-32"/>
     <use x="63.623047" xlink:href="#DejaVuSans-37"/>
    </g>
   </g>
   <g id="text_43">
    <!-- 28 -->
    <g transform="translate(1058.823529 626.556474)scale(0.1 -0.1)">
     <use xlink:href="#DejaVuSans-32"/>
     <use x="63.623047" xlink:href="#DejaVuSans-38"/>
    </g>
   </g>
   <g id="text_44">
    <!-- 29 -->
    <g transform="translate(1073.318654 545.454545)scale(0.1 -0.1)">
     <use xlink:href="#DejaVuSans-32"/>
     <use x="63.623047" xlink:href="#DejaVuSans-39"/>
    </g>
   </g>
   <g id="text_45">
    <!-- 30 -->
    <g transform="translate(500.761246 940.385675)scale(0.1 -0.1)">
     <use xlink:href="#DejaVuSans-33"/>
     <use x="63.623047" xlink:href="#DejaVuSans-30"/>
    </g>
   </g>
   <g id="text_46">
    <!-- 31 -->
    <g transform="translate(1134.922932 760.550964)scale(0.1 -0.1)">
     <use xlink:href="#DejaVuSans-33"/>
     <use x="63.623047" xlink:href="#DejaVuSans-31"/>
    </g>
   </g>
   <g id="text_47">
    <!-- 32 -->
    <g transform="translate(344.93866 1197.796143)scale(0.1 -0.1)">
     <use xlink:href="#DejaVuSans-33"/>
     <use x="63.623047" xlink:href="#DejaVuSans-32"/>
    </g>
   </g>
   <g id="text_48">
    <!-- 33 -->
    <g transform="translate(964.605222 228.099174)scale(0.1 -0.1)">
     <use xlink:href="#DejaVuSans-33"/>
     <use x="63.623047" xlink:href="#DejaVuSans-33"/>
    </g>
   </g>
   <g id="text_49">
    <!-- 34 -->
    <g transform="translate(511.632589 439.669421)scale(0.1 -0.1)">
     <use xlink:href="#DejaVuSans-33"/>
     <use x="63.623047" xlink:href="#DejaVuSans-34"/>
    </g>
   </g>
   <g id="text_50">
    <!-- 35 -->
    <g transform="translate(1087.813778 1028.539945)scale(0.1 -0.1)">
     <use xlink:href="#DejaVuSans-33"/>
     <use x="63.623047" xlink:href="#DejaVuSans-35"/>
    </g>
   </g>
   <g id="text_51">
    <!-- 36 -->
    <g transform="translate(547.870399 1113.168044)scale(0.1 -0.1)">
     <use xlink:href="#DejaVuSans-33"/>
     <use x="63.623047" xlink:href="#DejaVuSans-36"/>
    </g>
   </g>
   <g id="text_52">
    <!-- 37 -->
    <g transform="translate(210.858761 612.451791)scale(0.1 -0.1)">
     <use xlink:href="#DejaVuSans-33"/>
     <use x="63.623047" xlink:href="#DejaVuSans-37"/>
    </g>
   </g>
   <g id="text_53">
    <!-- 38 -->
    <g transform="translate(348.562441 323.305785)scale(0.1 -0.1)">
     <use xlink:href="#DejaVuSans-33"/>
     <use x="63.623047" xlink:href="#DejaVuSans-38"/>
    </g>
   </g>
   <g id="text_54">
    <!-- 39 -->
    <g transform="translate(692.821642 1187.217631)scale(0.1 -0.1)">
     <use xlink:href="#DejaVuSans-33"/>
     <use x="63.623047" xlink:href="#DejaVuSans-39"/>
    </g>
   </g>
   <g id="text_55">
    <!-- 40 -->
    <g transform="translate(450.028311 912.176309)scale(0.1 -0.1)">
     <use xlink:href="#DejaVuSans-34"/>
     <use x="63.623047" xlink:href="#DejaVuSans-30"/>
    </g>
   </g>
   <g id="text_56">
    <!-- 41 -->
    <g transform="translate(627.593583 982.699725)scale(0.1 -0.1)">
     <use xlink:href="#DejaVuSans-34"/>
     <use x="63.623047" xlink:href="#DejaVuSans-31"/>
    </g>
   </g>
   <g id="text_57">
    <!-- 42 -->
    <g transform="translate(196.363636 464.352617)scale(0.1 -0.1)">
     <use xlink:href="#DejaVuSans-34"/>
     <use x="63.623047" xlink:href="#DejaVuSans-32"/>
    </g>
   </g>
   <g id="text_58">
    <!-- 43 -->
    <g transform="translate(1087.813778 400.881543)scale(0.1 -0.1)">
     <use xlink:href="#DejaVuSans-34"/>
     <use x="63.623047" xlink:href="#DejaVuSans-33"/>
    </g>
   </g>
   <g id="text_59">
    <!-- 44 -->
    <g transform="translate(471.770997 608.92562)scale(0.1 -0.1)">
     <use xlink:href="#DejaVuSans-34"/>
     <use x="63.623047" xlink:href="#DejaVuSans-34"/>
    </g>
   </g>
   <g id="text_60">
    <!-- 45 -->
    <g transform="translate(895.753382 838.126722)scale(0.1 -0.1)">
     <use xlink:href="#DejaVuSans-34"/>
     <use x="63.623047" xlink:href="#DejaVuSans-35"/>
    </g>
   </g>
   <g id="text_61">
    <!-- 46 -->
    <g transform="translate(1182.032086 213.99449)scale(0.1 -0.1)">
     <use xlink:href="#DejaVuSans-34"/>
     <use x="63.623047" xlink:href="#DejaVuSans-36"/>
    </g>
   </g>
   <g id="text_62">
    <!-- 47 -->
    <g transform="translate(196.363636 1201.322314)scale(0.1 -0.1)">
     <use xlink:href="#DejaVuSans-34"/>
     <use x="63.623047" xlink:href="#DejaVuSans-37"/>
    </g>
   </g>
   <g id="text_63">
    <!-- 48 -->
    <g transform="translate(460.899654 704.132231)scale(0.1 -0.1)">
     <use xlink:href="#DejaVuSans-34"/>
     <use x="63.623047" xlink:href="#DejaVuSans-38"/>
    </g>
   </g>
   <g id="text_64">
    <!-- 49 -->
    <g transform="translate(584.10821 707.658402)scale(0.1 -0.1)">
     <use xlink:href="#DejaVuSans-34"/>
     <use x="63.623047" xlink:href="#DejaVuSans-39"/>
    </g>
   </g>
   <g id="text_65">
    <!-- 50 -->
    <g transform="translate(1066.071092 933.333333)scale(0.1 -0.1)">
     <use xlink:href="#DejaVuSans-35"/>
     <use x="63.623047" xlink:href="#DejaVuSans-30"/>
    </g>
   </g>
   <g id="text_66">
    <!-- 51 -->
    <g transform="translate(214.482542 563.085399)scale(0.1 -0.1)">
     <use xlink:href="#DejaVuSans-35"/>
     <use x="63.623047" xlink:href="#DejaVuSans-31"/>
    </g>
   </g>
   <g id="text_67">
    <!-- 52 -->
    <g transform="translate(384.800252 369.146006)scale(0.1 -0.1)">
     <use xlink:href="#DejaVuSans-35"/>
     <use x="63.623047" xlink:href="#DejaVuSans-32"/>
    </g>
   </g>
   <g id="text_68">
    <!-- 53 -->
    <g transform="translate(681.950299 302.14876)scale(0.1 -0.1)">
     <use xlink:href="#DejaVuSans-35"/>
     <use x="63.623047" xlink:href="#DejaVuSans-33"/>
    </g>
   </g>
   <g id="text_69">
    <!-- 54 -->
    <g transform="translate(435.533187 887.493113)scale(0.1 -0.1)">
     <use xlink:href="#DejaVuSans-35"/>
     <use x="63.623047" xlink:href="#DejaVuSans-34"/>
    </g>
   </g>
   <g id="text_70">
    <!-- 55 -->
    <g transform="translate(997.219251 894.545455)scale(0.1 -0.1)">
     <use xlink:href="#DejaVuSans-35"/>
     <use x="63.623047" xlink:href="#DejaVuSans-35"/>
    </g>
   </g>
   <g id="text_71">
    <!-- 56 -->
    <g transform="translate(707.316766 1236.584022)scale(0.1 -0.1)">
     <use xlink:href="#DejaVuSans-35"/>
     <use x="63.623047" xlink:href="#DejaVuSans-36"/>
    </g>
   </g>
   <g id="text_72">
    <!-- 57 -->
    <g transform="translate(323.195974 291.570248)scale(0.1 -0.1)">
     <use xlink:href="#DejaVuSans-35"/>
     <use x="63.623047" xlink:href="#DejaVuSans-37"/>
    </g>
   </g>
   <g id="text_73">
    <!-- 58 -->
    <g transform="translate(348.562441 1123.746556)scale(0.1 -0.1)">
     <use xlink:href="#DejaVuSans-35"/>
     <use x="63.623047" xlink:href="#DejaVuSans-38"/>
    </g>
   </g>
   <g id="text_74">
    <!-- 59 -->
    <g transform="translate(707.316766 764.077135)scale(0.1 -0.1)">
     <use xlink:href="#DejaVuSans-35"/>
     <use x="63.623047" xlink:href="#DejaVuSans-39"/>
    </g>
   </g>
   <g id="text_75">
    <!-- 60 -->
    <g transform="translate(257.967914 887.493113)scale(0.1 -0.1)">
     <use xlink:href="#DejaVuSans-36"/>
     <use x="63.623047" xlink:href="#DejaVuSans-30"/>
    </g>
   </g>
   <g id="text_76">
    <!-- 61 -->
    <g transform="translate(794.287512 429.090909)scale(0.1 -0.1)">
     <use xlink:href="#DejaVuSans-36"/>
     <use x="63.623047" xlink:href="#DejaVuSans-31"/>
    </g>
   </g>
   <g id="text_77">
    <!-- 62 -->
    <g transform="translate(968.229003 340.936639)scale(0.1 -0.1)">
     <use xlink:href="#DejaVuSans-36"/>
     <use x="63.623047" xlink:href="#DejaVuSans-32"/>
    </g>
   </g>
   <g id="text_78">
    <!-- 63 -->
    <g transform="translate(1008.090595 1099.063361)scale(0.1 -0.1)">
     <use xlink:href="#DejaVuSans-36"/>
     <use x="63.623047" xlink:href="#DejaVuSans-33"/>
    </g>
   </g>
   <g id="text_79">
    <!-- 64 -->
    <g transform="translate(761.673482 1141.37741)scale(0.1 -0.1)">
     <use xlink:href="#DejaVuSans-36"/>
     <use x="63.623047" xlink:href="#DejaVuSans-34"/>
    </g>
   </g>
   <g id="text_80">
    <!-- 65 -->
    <g transform="translate(508.008808 862.809917)scale(0.1 -0.1)">
     <use xlink:href="#DejaVuSans-36"/>
     <use x="63.623047" xlink:href="#DejaVuSans-35"/>
    </g>
   </g>
   <g id="text_81">
    <!-- 66 -->
    <g transform="translate(533.375275 541.928375)scale(0.1 -0.1)">
     <use xlink:href="#DejaVuSans-36"/>
     <use x="63.623047" xlink:href="#DejaVuSans-36"/>
    </g>
   </g>
   <g id="text_82">
    <!-- 67 -->
    <g transform="translate(533.375275 697.07989)scale(0.1 -0.1)">
     <use xlink:href="#DejaVuSans-36"/>
     <use x="63.623047" xlink:href="#DejaVuSans-37"/>
    </g>
   </g>
   <g id="text_83">
    <!-- 68 -->
    <g transform="translate(1221.893677 326.831956)scale(0.1 -0.1)">
     <use xlink:href="#DejaVuSans-36"/>
     <use x="63.623047" xlink:href="#DejaVuSans-38"/>
    </g>
   </g>
   <g id="text_84">
    <!-- 69 -->
    <g transform="translate(446.40453 302.14876)scale(0.1 -0.1)">
     <use xlink:href="#DejaVuSans-36"/>
     <use x="63.623047" xlink:href="#DejaVuSans-39"/>
    </g>
   </g>
   <g id="text_85">
    <!-- 70 -->
    <g transform="translate(471.770997 429.090909)scale(0.1 -0.1)">
     <use xlink:href="#DejaVuSans-37"/>
     <use x="63.623047" xlink:href="#DejaVuSans-30"/>
    </g>
   </g>
   <g id="text_86">
    <!-- 71 -->
    <g transform="translate(808.782636 1229.53168)scale(0.1 -0.1)">
     <use xlink:href="#DejaVuSans-37"/>
     <use x="63.623047" xlink:href="#DejaVuSans-31"/>
    </g>
   </g>
   <g id="text_87">
    <!-- 72 -->
    <g transform="translate(863.139352 690.027548)scale(0.1 -0.1)">
     <use xlink:href="#DejaVuSans-37"/>
     <use x="63.623047" xlink:href="#DejaVuSans-32"/>
    </g>
   </g>
   <g id="text_88">
    <!-- 73 -->
    <g transform="translate(808.782636 1081.432507)scale(0.1 -0.1)">
     <use xlink:href="#DejaVuSans-37"/>
     <use x="63.623047" xlink:href="#DejaVuSans-33"/>
    </g>
   </g>
   <g id="text_89">
    <!-- 74 -->
    <g transform="translate(276.08682 647.713499)scale(0.1 -0.1)">
     <use xlink:href="#DejaVuSans-37"/>
     <use x="63.623047" xlink:href="#DejaVuSans-34"/>
    </g>
   </g>
   <g id="text_90">
    <!-- 75 -->
    <g transform="translate(855.89179 1233.057851)scale(0.1 -0.1)">
     <use xlink:href="#DejaVuSans-37"/>
     <use x="63.623047" xlink:href="#DejaVuSans-35"/>
    </g>
   </g>
   <g id="text_91">
    <!-- 76 -->
    <g transform="translate(207.23498 1092.011019)scale(0.1 -0.1)">
     <use xlink:href="#DejaVuSans-37"/>
     <use x="63.623047" xlink:href="#DejaVuSans-36"/>
    </g>
   </g>
   <g id="text_92">
    <!-- 77 -->
    <g transform="translate(613.098459 919.22865)scale(0.1 -0.1)">
     <use xlink:href="#DejaVuSans-37"/>
     <use x="63.623047" xlink:href="#DejaVuSans-37"/>
    </g>
   </g>
   <g id="text_93">
    <!-- 78 -->
    <g transform="translate(1243.636364 1113.168044)scale(0.1 -0.1)">
     <use xlink:href="#DejaVuSans-37"/>
     <use x="63.623047" xlink:href="#DejaVuSans-38"/>
    </g>
   </g>
   <g id="text_94">
    <!-- 79 -->
    <g transform="translate(830.525322 524.297521)scale(0.1 -0.1)">
     <use xlink:href="#DejaVuSans-37"/>
     <use x="63.623047" xlink:href="#DejaVuSans-39"/>
    </g>
   </g>
   <g id="text_95">
    <!-- 80 -->
    <g transform="translate(1196.52721 591.294766)scale(0.1 -0.1)">
     <use xlink:href="#DejaVuSans-38"/>
     <use x="63.623047" xlink:href="#DejaVuSans-30"/>
    </g>
   </g>
   <g id="text_96">
    <!-- 81 -->
    <g transform="translate(247.096571 527.823691)scale(0.1 -0.1)">
     <use xlink:href="#DejaVuSans-38"/>
     <use x="63.623047" xlink:href="#DejaVuSans-31"/>
    </g>
   </g>
   <g id="text_97">
    <!-- 82 -->
    <g transform="translate(841.396666 1201.322314)scale(0.1 -0.1)">
     <use xlink:href="#DejaVuSans-38"/>
     <use x="63.623047" xlink:href="#DejaVuSans-32"/>
    </g>
   </g>
   <g id="text_98">
    <!-- 83 -->
    <g transform="translate(207.23498 1243.636364)scale(0.1 -0.1)">
     <use xlink:href="#DejaVuSans-38"/>
     <use x="63.623047" xlink:href="#DejaVuSans-33"/>
    </g>
   </g>
   <g id="text_99">
    <!-- 84 -->
    <g transform="translate(497.137465 460.826446)scale(0.1 -0.1)">
     <use xlink:href="#DejaVuSans-38"/>
     <use x="63.623047" xlink:href="#DejaVuSans-34"/>
    </g>
   </g>
   <g id="text_100">
    <!-- 85 -->
    <g transform="translate(540.622837 1148.429752)scale(0.1 -0.1)">
     <use xlink:href="#DejaVuSans-38"/>
     <use x="63.623047" xlink:href="#DejaVuSans-35"/>
    </g>
   </g>
   <g id="text_101">
    <!-- 86 -->
    <g transform="translate(547.870399 221.046832)scale(0.1 -0.1)">
     <use xlink:href="#DejaVuSans-38"/>
     <use x="63.623047" xlink:href="#DejaVuSans-36"/>
    </g>
   </g>
   <g id="text_102">
    <!-- 87 -->
    <g transform="translate(395.671595 1180.165289)scale(0.1 -0.1)">
     <use xlink:href="#DejaVuSans-38"/>
     <use x="63.623047" xlink:href="#DejaVuSans-37"/>
    </g>
   </g>
   <g id="text_103">
    <!-- 88 -->
    <g transform="translate(884.882038 510.192837)scale(0.1 -0.1)">
     <use xlink:href="#DejaVuSans-38"/>
     <use x="63.623047" xlink:href="#DejaVuSans-38"/>
    </g>
   </g>
   <g id="text_104">
    <!-- 89 -->
    <g transform="translate(1232.76502 619.504132)scale(0.1 -0.1)">
     <use xlink:href="#DejaVuSans-38"/>
     <use x="63.623047" xlink:href="#DejaVuSans-39"/>
    </g>
   </g>
   <g id="text_105">
    <!-- 90 -->
    <g transform="translate(903.000944 1243.636364)scale(0.1 -0.1)">
     <use xlink:href="#DejaVuSans-39"/>
     <use x="63.623047" xlink:href="#DejaVuSans-30"/>
    </g>
   </g>
   <g id="text_106">
    <!-- 91 -->
    <g transform="translate(468.147216 739.393939)scale(0.1 -0.1)">
     <use xlink:href="#DejaVuSans-39"/>
     <use x="63.623047" xlink:href="#DejaVuSans-31"/>
    </g>
   </g>
   <g id="text_107">
    <!-- 92 -->
    <g transform="translate(1221.893677 898.071625)scale(0.1 -0.1)">
     <use xlink:href="#DejaVuSans-39"/>
     <use x="63.623047" xlink:href="#DejaVuSans-32"/>
    </g>
   </g>
   <g id="text_108">
    <!-- 93 -->
    <g transform="translate(1185.655867 1056.749311)scale(0.1 -0.1)">
     <use xlink:href="#DejaVuSans-39"/>
     <use x="63.623047" xlink:href="#DejaVuSans-33"/>
    </g>
   </g>
   <g id="text_109">
    <!-- 94 -->
    <g transform="translate(779.792388 1134.325069)scale(0.1 -0.1)">
     <use xlink:href="#DejaVuSans-39"/>
     <use x="63.623047" xlink:href="#DejaVuSans-34"/>
    </g>
   </g>
   <g id="text_110">
    <!-- 95 -->
    <g transform="translate(718.188109 1240.110193)scale(0.1 -0.1)">
     <use xlink:href="#DejaVuSans-39"/>
     <use x="63.623047" xlink:href="#DejaVuSans-35"/>
    </g>
   </g>
   <g id="text_111">
    <!-- 96 -->
    <g transform="translate(1142.170494 1049.69697)scale(0.1 -0.1)">
     <use xlink:href="#DejaVuSans-39"/>
     <use x="63.623047" xlink:href="#DejaVuSans-36"/>
    </g>
   </g>
   <g id="text_112">
    <!-- 97 -->
    <g transform="translate(982.724127 305.674931)scale(0.1 -0.1)">
     <use xlink:href="#DejaVuSans-39"/>
     <use x="63.623047" xlink:href="#DejaVuSans-37"/>
    </g>
   </g>
   <g id="text_113">
    <!-- 98 -->
    <g transform="translate(602.227115 883.966942)scale(0.1 -0.1)">
     <use xlink:href="#DejaVuSans-39"/>
     <use x="63.623047" xlink:href="#DejaVuSans-38"/>
    </g>
   </g>
   <g id="text_114">
    <!-- 99 -->
    <g transform="translate(1102.308902 1190.743802)scale(0.1 -0.1)">
     <use xlink:href="#DejaVuSans-39"/>
     <use x="63.623047" xlink:href="#DejaVuSans-39"/>
    </g>
   </g>
  </g>
 </g>
 <defs>
  <clipPath id="pb94096612d">
   <rect height="1152" width="1152" x="144" y="144"/>
  </clipPath>
 </defs>
</svg>
